<?xml version="1.0" encoding="UTF-8" standalone="no"?><!-- Generator: Gravit.io --><svg xmlns="http://www.w3.org/2000/svg" xmlns:xlink="http://www.w3.org/1999/xlink" style="isolation:isolate" viewBox="0 0 1500 1000" width="1500pt" height="1000pt"><g><clipPath id="_clipPath_MqiXCW3IZZzlAATjLauQVCM8s3t7lbGC"><path d=" M 0 0 L 0 1000 L 1500 1000 L 1500 0 L 0 0 Z " fill="rgb(255,255,255)"/></clipPath><g clip-path="url(#_clipPath_MqiXCW3IZZzlAATjLauQVCM8s3t7lbGC)"><clipPath id="_clipPath_kZFSMqtZGhiB4ly7sR8sNM5pVfLGTImo"><path d=" M 1500 1000 L 0 1000 L 0 0 L 1500 0 L 1500 1000 Z " fill="rgb(255,255,255)"/></clipPath><g clip-path="url(#_clipPath_kZFSMqtZGhiB4ly7sR8sNM5pVfLGTImo)"><linearGradient id="_lgradient_0" x1="0" y1="0" x2="1" y2="0" gradientTransform="matrix(1487.998,964,-964,1487.998,-1.877,12.896)" gradientUnits="userSpaceOnUse"><stop offset="1.3043478260869565%" stop-opacity="1" style="stop-color:rgb(71,128,127)"/><stop offset="24.782608695652176%" stop-opacity="1" style="stop-color:rgb(71,128,127)"/><stop offset="76.08695652173914%" stop-opacity="1" style="stop-color:rgb(32,83,78)"/><stop offset="98.26086956521739%" stop-opacity="1" style="stop-color:rgb(32,83,78)"/></linearGradient><path d=" M 1057.292 702.946 C 1004.304 702.948 951.276 681.822 904.59 655.016 C 846.096 621.43 792.768 578.528 731.018 551.394 C 677.082 527.696 618.692 517.18 559.786 517.18 C 499.702 517.18 439.082 528.118 382.092 547.166 C 341.112 560.862 301.75 578.448 263.724 598.788 C 230.126 595.71 216.28 585.912 216.28 585.912 C 178.908 564.004 147.764 525.984 147.033 482.672 C 146.709 463.416 152.224 445.114 158.944 426.946 C 162.279 430.948 167.301 433.496 172.918 433.496 C 182.959 433.496 191.1 425.356 191.1 415.314 C 191.1 407.762 186.496 401.286 179.941 398.538 C 178.585 395.004 175.994 392.082 172.695 390.3 C 175.792 381.198 178.42 371.994 180.017 362.584 C 189.124 308.898 161.451 254.634 118.284 220.634 C 150.915 184.24 190.141 155.271 237.284 144.798 C 250.574 141.845 263.976 140.493 277.376 140.493 C 330.362 140.493 383.39 161.619 430.076 188.425 C 488.57 222.01 541.898 264.914 603.648 292.046 C 657.584 315.746 715.974 326.262 774.88 326.262 C 834.964 326.262 895.584 315.322 952.574 296.276 C 1005.762 278.498 1056.23 254.166 1104.576 225.774 C 1121.288 226.356 1137.858 228.298 1154.214 232.398 C 1214.948 247.62 1265.38 291.53 1300.85 343.126 C 1317.38 367.172 1331.232 393.154 1347.38 417.394 C 1328.642 445.008 1312.296 474.59 1295.81 504.004 C 1294.972 502.114 1294.086 500.25 1293.152 498.414 C 1292.866 497.854 1292.498 497.34 1292.064 496.886 L 1247.834 450.534 C 1247.398 450.078 1246.902 449.686 1246.358 449.376 C 1242.64 447.258 1238.794 445.348 1234.836 443.636 L 1294.562 506.228 C 1292.668 509.606 1290.77 512.982 1288.866 516.352 L 1214.106 438.006 C 1213.218 437.078 1212.07 436.428 1210.808 436.182 C 1208.892 435.808 1206.96 435.482 1205.014 435.202 L 1286.476 520.57 C 1284.566 523.932 1282.648 527.286 1280.718 530.632 L 1190.352 435.93 C 1189.192 434.714 1187.586 434.002 1185.908 434.002 C 1185.872 434.002 1185.836 434.002 1185.798 434.002 C 1184.598 434.024 1183.402 434.064 1182.208 434.122 L 1278.294 534.814 C 1276.356 538.146 1274.404 541.464 1272.434 544.768 L 1170.62 438.072 C 1169.432 436.826 1167.788 436.116 1166.1 436.116 C 1165.712 436.116 1165.32 436.154 1164.932 436.232 C 1164.24 436.37 1163.548 436.514 1162.862 436.664 L 1269.96 548.898 C 1269.954 548.906 1269.952 548.91 1269.948 548.918 C 1267.982 552.178 1265.978 555.438 1263.94 558.684 L 1153.474 442.922 C 1152.278 441.67 1150.632 440.974 1148.958 440.974 C 1148.256 440.974 1147.546 441.096 1146.864 441.352 C 1146.546 441.472 1146.226 441.592 1145.906 441.714 L 1261.38 562.728 C 1259.338 565.926 1257.258 569.116 1255.144 572.286 L 1138.274 449.81 C 1137.096 448.576 1135.498 447.93 1133.88 447.93 C 1132.874 447.93 1131.862 448.18 1130.936 448.694 L 1130.842 448.744 L 1252.49 576.228 C 1250.37 579.35 1248.21 582.46 1246.016 585.54 L 1121.194 454.73 C 1119.906 455.618 1118.64 456.532 1117.39 457.468 L 1243.26 589.372 C 1241.054 592.41 1238.806 595.43 1236.528 598.412 L 1108.798 464.558 C 1107.652 465.598 1106.524 466.656 1105.42 467.74 L 1233.658 602.128 C 1231.356 605.074 1229.016 607.992 1226.642 610.87 L 1097.848 475.9 C 1096.842 477.092 1095.85 478.292 1094.89 479.524 L 1223.648 614.456 C 1221.244 617.3 1218.8 620.112 1216.32 622.874 L 1088.368 488.786 L 1088.344 488.826 C 1086.854 491.174 1087.154 494.238 1089.076 496.25 L 1213.192 626.318 C 1210.676 629.05 1208.12 631.74 1205.524 634.378 L 1080.496 503.354 C 1080.372 503.626 1080.248 503.904 1080.126 504.182 C 1079.12 506.47 1079.608 509.146 1081.334 510.956 L 1202.246 637.664 C 1199.606 640.274 1196.922 642.832 1194.202 645.33 L 1074.48 519.868 C 1074.296 520.516 1074.122 521.168 1073.95 521.82 C 1073.406 523.894 1074.024 526.112 1075.502 527.662 L 1190.756 648.444 C 1187.978 650.916 1185.158 653.326 1182.294 655.67 L 1070.822 538.854 C 1070.698 539.996 1070.588 541.142 1070.496 542.294 C 1070.358 544.038 1070.996 545.758 1072.202 547.022 L 1178.666 658.59 C 1175.73 660.908 1172.758 663.152 1169.736 665.326 L 1070.442 561.272 C 1070.592 563.168 1070.8 565.044 1071.046 566.914 C 1071.218 568.218 1071.814 569.434 1072.724 570.386 L 1164.146 666.194 C 1164.776 666.852 1165.536 667.368 1166.376 667.7 C 1145.504 682.168 1122.574 693.046 1097.382 698.642 C 1084.092 701.594 1070.69 702.946 1057.292 702.946 Z  M 1076.554 590.496 C 1077.838 594.198 1079.31 597.808 1080.944 601.332 C 1081.238 601.966 1081.638 602.546 1082.122 603.052 L 1131.956 655.278 C 1132.44 655.784 1133 656.208 1133.618 656.532 C 1137.062 658.33 1140.602 659.97 1144.238 661.424 L 1076.554 590.496 Z " fill-rule="evenodd" fill="url(#_lgradient_0)"/><clipPath id="_clipPath_kJ2tqjVnTZsmAElWrZfDEUQzWj4uDV6V"><path d=" M 1500 1000 L 0 1000 L 0 0 L 1500 0 L 1500 1000 Z " fill="rgb(255,255,255)"/></clipPath><g clip-path="url(#_clipPath_kJ2tqjVnTZsmAElWrZfDEUQzWj4uDV6V)"><path d=" M 1345.292 902.946 C 1292.306 902.948 1239.276 881.822 1192.59 855.016 C 1134.096 821.43 1080.768 778.528 1019.018 751.394 C 965.082 727.696 906.69 717.18 847.784 717.18 C 787.702 717.18 727.082 728.118 670.092 747.166 C 664.024 749.194 657.982 751.31 651.982 753.506 C 646.996 744.89 641.674 735.726 636 726 C 588.002 643.716 501.792 584.938 410.134 584.938 C 394.854 584.938 379.432 586.57 364 590 C 331.674 597.184 305.46 599.7 284.602 599.7 C 276.934 599.702 269.984 599.36 263.724 598.788 C 301.75 578.448 341.112 560.862 382.092 547.166 C 439.082 528.118 499.702 517.18 559.786 517.18 C 618.692 517.18 677.082 527.696 731.018 551.394 C 792.768 578.528 846.096 621.43 904.59 655.016 C 951.276 681.822 1004.304 702.948 1057.292 702.946 C 1070.69 702.946 1084.092 701.594 1097.382 698.642 C 1122.574 693.046 1145.504 682.168 1166.376 667.7 C 1166.748 667.848 1167.138 667.958 1167.538 668.032 C 1169.39 668.364 1171.258 668.66 1173.144 668.898 L 1169.736 665.326 C 1172.758 663.152 1175.73 660.908 1178.666 658.59 L 1187.462 667.806 C 1188.622 669.024 1190.226 669.736 1191.906 669.736 C 1191.972 669.736 1192.038 669.734 1192.104 669.732 C 1193.258 669.696 1194.41 669.638 1195.556 669.568 L 1182.294 655.67 C 1185.158 653.326 1187.978 650.916 1190.756 648.444 L 1206.954 665.418 C 1208.144 666.662 1209.788 667.372 1211.476 667.372 C 1211.888 667.372 1212.304 667.33 1212.716 667.242 C 1213.376 667.102 1214.036 666.954 1214.692 666.802 L 1194.202 645.33 C 1196.922 642.832 1199.606 640.274 1202.246 637.664 L 1223.916 660.372 C 1225.112 661.628 1226.752 662.306 1228.424 662.306 C 1229.164 662.306 1229.91 662.174 1230.626 661.898 C 1230.908 661.788 1231.19 661.678 1231.47 661.568 L 1205.524 634.378 C 1208.12 631.74 1210.676 629.05 1213.192 626.318 L 1238.968 653.33 C 1240.142 654.56 1241.736 655.204 1243.35 655.204 C 1244.376 655.204 1245.408 654.944 1246.348 654.408 L 1246.388 654.384 L 1216.32 622.874 C 1218.8 620.112 1221.244 617.3 1223.648 614.456 L 1255.948 648.304 C 1257.22 647.404 1258.466 646.468 1259.704 645.52 L 1226.642 610.87 C 1229.016 607.992 1231.356 605.074 1233.658 602.128 L 1268.212 638.338 C 1269.346 637.286 1270.456 636.208 1271.546 635.112 L 1236.528 598.412 C 1238.806 595.43 1241.054 592.41 1243.26 589.372 L 1279.032 626.86 C 1280.026 625.654 1280.998 624.434 1281.944 623.19 L 1246.016 585.54 C 1248.21 582.46 1250.37 579.35 1252.49 576.228 L 1288.374 613.832 C 1289.86 611.43 1289.536 608.326 1287.584 606.284 L 1255.144 572.286 C 1257.258 569.116 1259.338 565.926 1261.38 562.728 L 1296.102 599.114 C 1296.238 598.798 1296.374 598.486 1296.51 598.172 C 1297.48 595.91 1296.948 593.278 1295.25 591.496 L 1263.94 558.684 C 1265.978 555.438 1267.982 552.178 1269.948 548.918 C 1269.952 548.91 1269.954 548.906 1269.96 548.898 L 1301.942 582.414 C 1302.122 581.732 1302.298 581.05 1302.468 580.364 C 1302.98 578.31 1302.36 576.128 1300.898 574.598 L 1272.434 544.768 C 1274.404 541.464 1276.356 538.146 1278.294 534.814 L 1305.386 563.206 C 1305.498 562.018 1305.596 560.824 1305.674 559.624 C 1305.786 557.91 1305.144 556.23 1303.96 554.988 L 1280.718 530.632 C 1282.648 527.286 1284.566 523.932 1286.476 520.57 L 1305.374 540.374 C 1305.186 538.418 1304.948 536.472 1304.666 534.54 C 1304.478 533.27 1303.886 532.092 1302.998 531.162 L 1288.866 516.352 C 1290.77 512.982 1292.668 509.606 1294.562 506.228 L 1298.346 510.192 C 1297.556 508.102 1296.71 506.038 1295.81 504.004 C 1312.296 474.59 1328.642 445.008 1347.38 417.394 C 1354.948 428.752 1363.018 439.73 1372.108 449.948 C 1406.068 488.122 1450.998 512.328 1500 527.676 L 1500 827.606 C 1468.256 861.734 1430.434 888.634 1385.382 898.642 C 1372.092 901.596 1358.692 902.946 1345.292 902.946 Z " fill="rgb(65,121,119)"/><linearGradient id="_lgradient_1" x1="0" y1="0" x2="1" y2="0" gradientTransform="matrix(-2068,-928,928,-2068,1716.386,660.104)" gradientUnits="userSpaceOnUse"><stop offset="2.1739130434782608%" stop-opacity="1" style="stop-color:rgb(71,128,127)"/><stop offset="23.91304347826087%" stop-opacity="1" style="stop-color:rgb(71,128,127)"/><stop offset="76.95652173913044%" stop-opacity="1" style="stop-color:rgb(32,83,78)"/><stop offset="97.82608695652173%" stop-opacity="1" style="stop-color:rgb(32,83,78)"/></linearGradient><path d=" M 774.88 326.262 C 715.974 326.262 657.584 315.746 603.648 292.046 C 541.898 264.914 488.57 222.01 430.076 188.425 C 383.39 161.619 330.362 140.493 277.376 140.493 C 263.976 140.493 250.574 141.845 237.284 144.798 C 190.141 155.271 150.915 184.24 118.284 220.634 C 107.068 211.8 94.805 204.332 81.871 198.6 C 55.974 187.121 28.196 181.603 0 180.789 L 0 152.134 C 19.584 143.369 37.859 131.618 53.809 117.341 C 73.321 99.876 89.865 78.82 111.876 64.633 C 135.293 49.539 162.158 43.753 189.928 43.753 C 222.166 43.753 255.628 51.546 286.364 61.616 C 337.598 78.405 389.34 100.885 442.594 100.886 C 448.804 100.886 455.028 100.581 461.282 99.925 C 519.58 93.81 570.626 52.657 595.448 0 L 728.744 0 C 724.09 32.602 726.924 66.262 737.876 97.34 C 761.204 163.526 820.544 215.738 889.16 230.454 C 907.224 234.326 925.524 235.738 943.944 235.738 C 968.664 235.738 993.606 233.198 1018.538 230.658 C 1043.468 228.118 1068.384 225.578 1093.036 225.578 C 1096.888 225.578 1100.738 225.64 1104.576 225.774 C 1056.23 254.166 1005.762 278.498 952.574 296.276 C 895.584 315.322 834.964 326.262 774.88 326.262 Z " fill="url(#_lgradient_1)"/><path d=" M 1500 1000 L 1378.912 1000 C 1372.364 990.718 1363.282 983.352 1352.674 978.906 C 1345.076 959.1 1325.88 945.036 1303.398 945.036 C 1274.262 945.036 1250.642 968.658 1250.642 997.794 C 1250.642 998.532 1250.658 999.27 1250.688 1000 L 1121.144 1000 C 1073.594 951.908 1008.752 920.806 940.93 920.62 C 940.692 920.618 940.452 920.618 940.212 920.618 C 926.046 920.618 911.89 921.768 897.742 922.916 C 883.594 924.066 869.454 925.216 855.322 925.216 C 849.682 925.216 844.044 925.032 838.408 924.594 C 791.146 920.912 745.604 898.474 713.886 863.246 C 713.886 863.246 696.21 829.934 651.982 753.506 C 657.982 751.31 664.024 749.194 670.092 747.166 C 727.082 728.118 787.702 717.18 847.784 717.18 C 906.69 717.18 965.082 727.696 1019.018 751.394 C 1080.768 778.528 1134.096 821.43 1192.59 855.016 C 1239.276 881.822 1292.306 902.948 1345.292 902.946 C 1358.692 902.946 1372.092 901.596 1385.382 898.642 C 1430.434 888.634 1468.256 861.734 1500 827.606 L 1500 1000 Z " fill="rgb(94,183,174)"/><linearGradient id="_lgradient_2" x1="0" y1="0.5" x2="1" y2="0.5" gradientTransform="matrix(595.448,0,0,152.134,0,0)" gradientUnits="userSpaceOnUse"><stop offset="2.1739130434782608%" stop-opacity="1" style="stop-color:rgb(71,128,127)"/><stop offset="17.391304347826086%" stop-opacity="1" style="stop-color:rgb(71,128,127)"/><stop offset="96.95652173913044%" stop-opacity="1" style="stop-color:rgb(232,84,104)"/></linearGradient><path d=" M 0 152.134 L 0 0 L 595.448 0 C 570.626 52.657 519.58 93.81 461.282 99.925 C 455.028 100.581 448.804 100.886 442.594 100.886 C 389.34 100.885 337.598 78.405 286.364 61.616 C 255.628 51.546 222.166 43.753 189.928 43.753 C 162.158 43.753 135.293 49.539 111.876 64.633 C 89.865 78.82 73.321 99.876 53.809 117.341 C 37.859 131.618 19.584 143.369 0 152.134 Z " fill="url(#_lgradient_2)"/><linearGradient id="_lgradient_3" x1="-0.05916780481457565" y1="0.9908152111093489" x2="0.996500489718104" y2="0.013339940290164942" gradientTransform="matrix(395.424,0,0,417.394,1104.576,0)" gradientUnits="userSpaceOnUse"><stop offset="2.608695652173913%" stop-opacity="1" style="stop-color:rgb(232,84,104)"/><stop offset="98.69565217391305%" stop-opacity="1" style="stop-color:rgb(39,91,86)"/></linearGradient><path d=" M 1347.38 417.394 C 1331.232 393.154 1317.38 367.172 1300.85 343.126 C 1265.38 291.53 1214.948 247.62 1154.214 232.398 C 1137.858 228.298 1121.288 226.356 1104.576 225.774 C 1158.82 193.918 1210.388 156.951 1260.118 118.399 C 1308.834 80.631 1356.214 41.131 1402.13 0 L 1500 0 L 1500 219.562 C 1498.754 219.412 1497.484 219.336 1496.198 219.336 C 1478.77 219.336 1464.642 233.464 1464.642 250.894 C 1464.642 260.29 1468.75 268.728 1475.266 274.51 C 1475.558 282.452 1478.394 289.748 1482.986 295.598 C 1453.322 312.416 1424.798 331.004 1400.02 354.292 C 1379.896 373.206 1362.824 394.634 1347.38 417.394 Z " fill="url(#_lgradient_3)"/><linearGradient id="_lgradient_4" x1="-0.06687766909349906" y1="0.5888589118659127" x2="1.005022018777508" y2="0.09461400470205739" gradientTransform="matrix(152.62,0,0,232.078,1347.38,295.598)" gradientUnits="userSpaceOnUse"><stop offset="3.0434782608695654%" stop-opacity="1" style="stop-color:rgb(167,86,98)"/><stop offset="96.95652173913044%" stop-opacity="1" style="stop-color:rgb(107,88,92)"/></linearGradient><path d=" M 1500 527.676 C 1450.998 512.328 1406.068 488.122 1372.108 449.948 C 1363.018 439.73 1354.948 428.752 1347.38 417.394 C 1362.824 394.634 1379.896 373.206 1400.02 354.292 C 1424.798 331.004 1453.322 312.416 1482.986 295.598 C 1487.316 301.12 1493.21 305.356 1500 307.642 L 1500 527.676 Z " fill="url(#_lgradient_4)"/><linearGradient id="_lgradient_5" x1="-0.08716256026528652" y1="0.46340814929690277" x2="0.8022573392481906" y2="-0.1390224447890711" gradientTransform="matrix(675.537,0,0,235.738,726.593,0)" gradientUnits="userSpaceOnUse"><stop offset="2.608695652173913%" stop-opacity="1" style="stop-color:rgb(232,99,117)"/><stop offset="98.26086956521739%" stop-opacity="1" style="stop-color:rgb(60,90,88)"/></linearGradient><path d=" M 943.944 235.738 C 925.524 235.738 907.224 234.326 889.16 230.454 C 820.544 215.738 761.204 163.526 737.876 97.34 C 726.924 66.262 724.09 32.602 728.744 0 L 1001.416 0 C 1001.414 0.248 1001.412 0.495 1001.412 0.744 C 1001.412 17.4 1008.694 32.357 1020.246 42.604 C 1021.506 77.105 1049.874 104.688 1084.682 104.688 C 1120.292 104.688 1149.16 75.82 1149.16 40.209 C 1149.16 25.001 1143.896 11.025 1135.09 0 L 1402.13 0 C 1356.214 41.131 1308.834 80.631 1260.118 118.399 C 1210.388 156.951 1158.82 193.918 1104.576 225.774 C 1100.738 225.64 1096.888 225.578 1093.036 225.578 C 1068.384 225.578 1043.468 228.118 1018.538 230.658 C 993.606 233.198 968.664 235.738 943.944 235.738 Z " fill="url(#_lgradient_5)"/><linearGradient id="_lgradient_6" x1="0.3369686641793421" y1="0.7397134231456344" x2="0.8754701638566452" y2="-0.012232506439755375" gradientTransform="matrix(263.724,0,0,470.708,0,220.634)" gradientUnits="userSpaceOnUse"><stop offset="2.1739130434782608%" stop-opacity="1" style="stop-color:rgb(164,95,105)"/><stop offset="97.82608695652173%" stop-opacity="1" style="stop-color:rgb(232,84,104)"/></linearGradient><path d=" M 119.178 691.342 C 111.439 678.476 103.168 665.982 94.047 654.118 C 68.566 620.972 36.286 593.206 0 572.456 L 0 406.476 C 22.756 370.082 42.551 331.28 64.718 294.522 C 80.234 268.792 97.982 243.278 118.284 220.634 C 161.451 254.634 189.124 308.898 180.017 362.584 C 178.42 371.994 175.792 381.198 172.695 390.3 C 170.468 389.098 167.919 388.414 165.21 388.414 C 156.5 388.414 149.439 395.476 149.439 404.186 C 149.439 408.882 151.491 413.1 154.749 415.988 C 154.901 420.15 156.451 423.954 158.944 426.946 C 152.224 445.114 146.709 463.416 147.033 482.672 C 147.764 525.984 178.908 564.004 216.28 585.912 C 216.28 585.912 230.126 595.71 263.724 598.788 C 243.366 609.676 223.396 621.352 203.766 633.642 C 202.986 633.23 202.184 632.852 201.364 632.508 C 197.586 622.652 188.035 615.656 176.849 615.656 C 162.354 615.656 150.601 627.408 150.601 641.904 C 150.601 649.72 154.018 656.738 159.439 661.548 C 159.454 661.936 159.475 662.322 159.504 662.706 C 145.91 672.03 132.472 681.596 119.178 691.342 Z " fill="url(#_lgradient_6)"/><linearGradient id="_lgradient_7" x1="0.09398750503478344" y1="0.5331710246095742" x2="0.792773278618705" y2="-0.0885036706359903" gradientTransform="matrix(532.804,0,0,359.94,119.178,584.938)" gradientUnits="userSpaceOnUse"><stop offset="3.0434782608695654%" stop-opacity="1" style="stop-color:rgb(159,95,104)"/><stop offset="99.1304347826087%" stop-opacity="1" style="stop-color:rgb(232,99,117)"/></linearGradient><path d=" M 337.286 944.878 C 325.748 940.222 314.424 935.13 303.446 929.482 L 270.638 895.1 C 268.626 896.484 266.65 897.914 264.696 899.376 L 281.784 917.284 C 267.576 908.518 254.152 898.572 241.82 887.126 C 185.089 834.484 159.199 757.874 119.178 691.342 C 132.472 681.596 145.91 672.03 159.504 662.706 C 160.671 678.35 173.734 690.682 189.677 690.682 C 206.388 690.682 219.934 677.134 219.934 660.424 C 219.934 648.802 213.38 638.71 203.766 633.642 C 223.396 621.352 243.366 609.676 263.724 598.788 C 269.984 599.36 276.934 599.702 284.602 599.7 C 305.46 599.7 331.674 597.184 364 590 C 379.432 586.57 394.854 584.938 410.134 584.938 C 501.792 584.938 588.002 643.716 636 726 C 641.674 735.726 646.996 744.89 651.982 753.506 C 570.68 783.26 495.722 828.006 424.902 878.522 L 415.79 868.972 C 414.404 867.52 412.61 866.508 410.638 866.124 C 407.646 865.54 404.628 865.03 401.586 864.59 L 418.95 882.788 C 414.214 886.198 409.49 889.638 404.79 893.094 L 378.678 865.73 C 376.864 863.83 374.358 862.716 371.736 862.716 C 371.68 862.716 371.624 862.716 371.568 862.716 C 369.692 862.75 367.822 862.812 365.96 862.902 L 398.912 897.436 C 394.234 900.908 389.562 904.406 384.918 907.916 L 347.852 869.074 C 345.998 867.13 343.428 866.02 340.792 866.02 C 340.186 866.02 339.576 866.078 338.968 866.2 C 337.886 866.414 336.808 866.64 335.732 866.874 L 379.102 912.324 C 374.472 915.848 369.848 919.396 365.25 922.952 L 321.068 876.652 C 319.2 874.694 316.628 873.608 314.012 873.608 C 312.914 873.608 311.808 873.8 310.742 874.2 C 310.244 874.384 309.744 874.574 309.246 874.766 L 359.488 927.418 C 354.898 930.988 350.322 934.572 345.756 938.172 L 297.32 887.412 C 295.482 885.486 292.984 884.476 290.456 884.476 C 288.884 884.476 287.302 884.866 285.858 885.668 L 285.71 885.75 L 340.042 942.688 C 339.122 943.418 338.204 944.146 337.286 944.878 Z " fill="url(#_lgradient_7)"/><linearGradient id="_lgradient_8" x1="-0.2524716673266838" y1="0.7023499663156791" x2="0.7956295228737034" y2="-0.08789412774387995" gradientTransform="matrix(118.284,0,0,225.687,0,180.789)" gradientUnits="userSpaceOnUse"><stop offset="2.1739130434782608%" stop-opacity="1" style="stop-color:rgb(164,95,105)"/><stop offset="98.26086956521739%" stop-opacity="1" style="stop-color:rgb(213,87,104)"/></linearGradient><path d=" M 0 406.476 L 0 180.789 C 28.196 181.603 55.974 187.121 81.871 198.6 C 94.805 204.332 107.068 211.8 118.284 220.634 C 97.982 243.278 80.234 268.792 64.718 294.522 C 42.551 331.28 22.756 370.082 0 406.476 Z " fill="url(#_lgradient_8)"/><linearGradient id="_lgradient_9" x1="-0.006215993331171621" y1="0.7792758140261687" x2="0.6540385485534157" y2="0.7256356722272461" gradientTransform="matrix(783.858,0,0,246.494,337.286,753.506)" gradientUnits="userSpaceOnUse"><stop offset="3.0434782608695654%" stop-opacity="1" style="stop-color:rgb(159,95,104)"/><stop offset="98.26086956521739%" stop-opacity="1" style="stop-color:rgb(232,99,117)"/></linearGradient><path d=" M 1121.144 1000 L 540.82 1000 L 424.902 878.522 C 495.722 828.006 570.68 783.26 651.982 753.506 C 696.21 829.934 713.886 863.246 713.886 863.246 C 745.604 898.474 791.146 920.912 838.408 924.594 C 844.044 925.032 849.682 925.216 855.322 925.216 C 869.454 925.216 883.594 924.066 897.742 922.916 C 911.89 921.768 926.046 920.618 940.212 920.618 C 940.452 920.618 940.692 920.618 940.93 920.62 C 1008.752 920.806 1073.594 951.908 1121.144 1000 Z  M 448.176 877.766 L 547.396 981.742 C 545.01 975.444 542.312 969.298 539.282 963.346 C 538.836 962.47 538.26 961.666 537.582 960.958 L 468.482 888.542 C 467.802 887.832 467.028 887.218 466.174 886.732 C 460.37 883.426 454.358 880.444 448.176 877.766 Z  M 530.8 1000 L 515.004 1000 C 511.01 998.624 506.994 997.286 502.97 995.982 L 404.79 893.094 C 409.49 889.638 414.214 886.198 418.95 882.788 L 530.8 1000 Z  M 488.658 991.486 C 477.656 988.13 466.57 984.96 455.472 981.854 L 384.918 907.916 C 389.562 904.406 394.234 900.908 398.912 897.436 L 488.658 991.486 Z  M 441.834 978.064 C 431.488 975.2 421.142 972.348 410.856 969.412 C 410.274 969.246 409.69 969.078 409.106 968.912 L 365.25 922.952 C 369.848 919.396 374.472 915.848 379.102 912.324 L 441.834 978.064 Z  M 395.19 964.832 C 383.566 961.346 371.966 957.644 360.486 953.608 L 345.756 938.172 C 350.322 934.572 354.898 930.988 359.488 927.418 L 395.19 964.832 Z  M 345.052 947.938 C 342.452 946.938 339.864 945.92 337.286 944.878 C 338.204 944.146 339.122 943.418 340.042 942.688 L 345.052 947.938 Z " fill-rule="evenodd" fill="url(#_lgradient_9)"/><linearGradient id="_lgradient_10" x1="-0.07534656099103916" y1="0.6726118705638732" x2="0.9276591062208622" y2="0.3067043329728445" gradientTransform="matrix(119.178,0,0,212.604,0,572.456)" gradientUnits="userSpaceOnUse"><stop offset="3.0434782608695654%" stop-opacity="1" style="stop-color:rgb(164,95,105)"/><stop offset="97.3913043478261%" stop-opacity="1" style="stop-color:rgb(164,95,105)"/></linearGradient><path d=" M 0 785.06 L 0 572.456 C 36.286 593.206 68.566 620.972 94.047 654.118 C 103.168 665.982 111.439 678.476 119.178 691.342 C 104.128 702.374 89.257 713.64 74.55 725.042 C 49.334 744.59 24.481 764.598 0 785.06 Z " fill="url(#_lgradient_10)"/><linearGradient id="_lgradient_11" x1="0.1011575514988251" y1="0.4519414647055992" x2="0.6561727434055458" y2="0.0395263621264792" gradientTransform="matrix(337.286,0,0,308.658,0,691.342)" gradientUnits="userSpaceOnUse"><stop offset="2.608695652173913%" stop-opacity="1" style="stop-color:rgb(163,95,105)"/><stop offset="98.69565217391305%" stop-opacity="1" style="stop-color:rgb(159,95,104)"/></linearGradient><path d=" M 270.292 1000 L 268.686 1000 L 219.356 948.302 L 219.316 948.366 C 216.988 952.036 217.46 956.82 220.46 959.962 L 258.666 1000 L 234.67 1000 L 207.056 971.06 C 206.862 971.49 206.67 971.92 206.48 972.354 C 204.908 975.932 205.668 980.112 208.366 982.938 L 224.648 1000 L 200.654 1000 L 197.657 996.86 C 197.373 997.874 197.097 998.89 196.829 999.912 C 196.821 999.942 196.814 999.97 196.807 1000 L 0 1000 L 0 785.06 C 24.481 764.598 49.334 744.59 74.55 725.042 C 89.257 713.64 104.128 702.374 119.178 691.342 C 159.199 757.874 185.089 834.484 241.82 887.126 C 254.152 898.572 267.576 908.518 281.784 917.284 L 320.76 958.13 C 316.248 961.778 311.744 965.444 307.258 969.122 L 251.272 910.454 C 249.482 912.078 247.718 913.73 245.994 915.424 L 301.64 973.74 C 297.166 977.428 292.702 981.134 288.252 984.854 L 234.164 928.172 C 232.594 930.034 231.042 931.91 229.544 933.834 L 282.682 989.52 C 278.54 993.002 274.412 996.492 270.292 1000 Z  M 326.424 953.562 L 303.446 929.482 C 314.424 935.13 325.748 940.222 337.286 944.878 C 333.658 947.764 330.038 950.658 326.424 953.562 Z " fill-rule="evenodd" fill="url(#_lgradient_11)"/><linearGradient id="_lgradient_12" x1="0" y1="0.5" x2="1" y2="0.5" gradientTransform="matrix(244.712,0,0,55.122,270.292,944.878)" gradientUnits="userSpaceOnUse"><stop offset="2.608695652173913%" stop-opacity="1" style="stop-color:rgb(161,95,104)"/><stop offset="97.3913043478261%" stop-opacity="1" style="stop-color:rgb(160,95,104)"/></linearGradient><path d=" M 515.004 1000 L 506.804 1000 L 502.97 995.982 C 506.994 997.286 511.01 998.624 515.004 1000 Z  M 496.782 1000 L 472.788 1000 L 455.472 981.854 C 466.57 984.96 477.656 988.13 488.658 991.486 L 496.782 1000 Z  M 462.766 1000 L 438.772 1000 L 409.106 968.912 C 409.69 969.078 410.274 969.246 410.856 969.412 C 421.142 972.348 431.488 975.2 441.834 978.064 L 462.766 1000 Z  M 428.748 1000 L 404.754 1000 L 360.486 953.608 C 371.966 957.644 383.566 961.346 395.19 964.832 L 428.748 1000 Z  M 394.732 1000 L 370.738 1000 L 326.424 953.562 C 330.038 950.658 333.658 947.764 337.286 944.878 C 339.864 945.92 342.452 946.938 345.052 947.938 L 394.732 1000 Z  M 360.714 1000 L 336.722 1000 L 307.258 969.122 C 311.744 965.444 316.248 961.778 320.76 958.13 L 360.714 1000 Z  M 326.698 1000 L 302.706 1000 L 288.252 984.854 C 292.702 981.134 297.166 977.428 301.64 973.74 L 326.698 1000 Z  M 292.682 1000 L 270.292 1000 C 274.412 996.492 278.54 993.002 282.682 989.52 L 292.682 1000 Z " fill-rule="evenodd" fill="url(#_lgradient_12)"/></g><path d=" M 1378.912 1000 L 1356.11 1000 C 1356.14 999.27 1356.156 998.532 1356.156 997.794 C 1356.156 991.138 1354.924 984.772 1352.674 978.906 C 1363.282 983.352 1372.364 990.718 1378.912 1000 Z " fill="rgb(90,127,125)"/><linearGradient id="_lgradient_13" x1="0" y1="0.5" x2="1" y2="0.5" gradientTransform="matrix(102.032,0,0,54.964,1250.642,945.036)" gradientUnits="userSpaceOnUse"><stop offset="1.7391304347826086%" stop-opacity="1" style="stop-color:rgb(196,100,113)"/><stop offset="98.26086956521739%" stop-opacity="1" style="stop-color:rgb(61,109,107)"/></linearGradient><path d=" M 1279.454 1000 L 1250.688 1000 C 1250.658 999.27 1250.642 998.532 1250.642 997.794 C 1250.642 968.658 1274.262 945.036 1303.398 945.036 C 1325.88 945.036 1345.076 959.1 1352.674 978.906 C 1345.446 975.878 1337.51 974.204 1329.182 974.204 C 1308.632 974.204 1290.464 984.396 1279.454 1000 Z " fill="url(#_lgradient_13)"/><linearGradient id="_lgradient_14" x1="0" y1="0.5" x2="1" y2="0.5" gradientTransform="matrix(76.702,0,0,25.796,1279.454,974.204)" gradientUnits="userSpaceOnUse"><stop offset="1.7391304347826086%" stop-opacity="1" style="stop-color:rgb(195,100,113)"/><stop offset="98.26086956521739%" stop-opacity="1" style="stop-color:rgb(64,109,107)"/></linearGradient><path d=" M 1356.11 1000 L 1279.454 1000 C 1290.464 984.396 1308.632 974.204 1329.182 974.204 C 1337.51 974.204 1345.446 975.878 1352.674 978.906 C 1354.924 984.772 1356.156 991.138 1356.156 997.794 C 1356.156 998.532 1356.14 999.27 1356.11 1000 Z " fill="url(#_lgradient_14)"/><radialGradient id="_rgradient_0" fx="0.5" fy="0.5" cx="0.5" cy="0.5" r="0.5" gradientTransform="matrix(32.156,0,0,34.958,158.944,398.538)" gradientUnits="userSpaceOnUse"><stop offset="0%" stop-opacity="1" style="stop-color:rgb(109,92,96)"/><stop offset="98.26086956521739%" stop-opacity="1" style="stop-color:rgb(98,83,86)"/></radialGradient><path d=" M 172.918 433.496 C 167.301 433.496 162.279 430.948 158.944 426.946 C 159.853 424.486 160.785 422.03 161.727 419.572 C 162.847 419.824 164.013 419.958 165.21 419.958 C 173.921 419.958 180.982 412.896 180.982 404.186 C 180.982 402.196 180.614 400.292 179.941 398.538 C 186.496 401.286 191.1 407.762 191.1 415.314 C 191.1 425.356 182.959 433.496 172.918 433.496 Z " fill="url(#_rgradient_0)"/><path d=" M 158.944 426.946 C 156.451 423.954 154.901 420.15 154.749 415.988 C 156.702 417.722 159.09 418.978 161.727 419.572 C 160.785 422.03 159.853 424.486 158.944 426.946 Z " fill="rgb(98,83,86)"/><path d=" M 179.941 398.538 C 177.78 397.634 175.407 397.132 172.918 397.132 C 171.999 397.132 171.095 397.2 170.212 397.332 C 171.065 394.994 171.895 392.65 172.695 390.3 C 175.994 392.082 178.585 395.004 179.941 398.538 Z " fill="rgb(111,106,109)"/><linearGradient id="_lgradient_15" x1="0.36812770438508213" y1="0.44435615015243535" x2="0.9635405852757315" y2="0.027908640074873314" gradientTransform="matrix(23.257,0,0,27.574,149.439,388.414)" gradientUnits="userSpaceOnUse"><stop offset="0%" stop-opacity="1" style="stop-color:rgb(131,105,110)"/><stop offset="98.69565217391305%" stop-opacity="1" style="stop-color:rgb(110,106,109)"/></linearGradient><path d=" M 154.749 415.988 C 151.491 413.1 149.439 408.882 149.439 404.186 C 149.439 395.476 156.5 388.414 165.21 388.414 C 167.919 388.414 170.468 389.098 172.695 390.3 C 171.895 392.65 171.065 394.994 170.212 397.332 C 161.454 398.64 154.736 406.192 154.736 415.314 C 154.736 415.54 154.74 415.764 154.749 415.988 Z " fill="url(#_lgradient_15)"/><linearGradient id="_lgradient_16" x1="0" y1="0.5" x2="1" y2="0.5" gradientTransform="matrix(19.255,0,0,22.826,161.727,397.132)" gradientUnits="userSpaceOnUse"><stop offset="0%" stop-opacity="1" style="stop-color:rgb(99,93,98)"/><stop offset="99.1304347826087%" stop-opacity="1" style="stop-color:rgb(100,93,98)"/></linearGradient><path d=" M 165.21 419.958 C 164.013 419.958 162.847 419.824 161.727 419.572 C 164.564 412.176 167.497 404.778 170.212 397.332 C 171.095 397.2 171.999 397.132 172.918 397.132 C 175.407 397.132 177.78 397.634 179.941 398.538 C 180.614 400.292 180.982 402.196 180.982 404.186 C 180.982 412.896 173.921 419.958 165.21 419.958 Z " fill="url(#_lgradient_16)"/><linearGradient id="_lgradient_17" x1="0" y1="0.5" x2="1" y2="0.5" gradientTransform="matrix(15.476,0,0,22.24,154.736,397.332)" gradientUnits="userSpaceOnUse"><stop offset="0%" stop-opacity="1" style="stop-color:rgb(123,97,101)"/><stop offset="99.1304347826087%" stop-opacity="1" style="stop-color:rgb(98,93,98)"/></linearGradient><path d=" M 161.727 419.572 C 159.09 418.978 156.702 417.722 154.749 415.988 C 154.74 415.764 154.736 415.54 154.736 415.314 C 154.736 406.192 161.454 398.64 170.212 397.332 C 167.497 404.778 164.564 412.176 161.727 419.572 Z " fill="url(#_lgradient_17)"/><path d=" M 159.504 662.706 C 159.475 662.322 159.454 661.936 159.439 661.548 C 159.695 661.774 159.956 661.996 160.221 662.214 C 159.981 662.378 159.744 662.54 159.504 662.706 Z  M 202.094 634.692 C 201.882 633.95 201.638 633.222 201.364 632.508 C 202.184 632.852 202.986 633.23 203.766 633.642 C 203.212 633.988 202.648 634.342 202.094 634.692 Z " fill-rule="evenodd" fill="rgb(98,83,86)"/><radialGradient id="_rgradient_1" fx="0.5" fy="0.5" cx="0.5" cy="0.5" r="0.5" gradientTransform="matrix(60.43,0,0,57.04,159.504,633.642)" gradientUnits="userSpaceOnUse"><stop offset="0%" stop-opacity="1" style="stop-color:rgb(110,93,97)"/><stop offset="97.82608695652173%" stop-opacity="1" style="stop-color:rgb(98,83,86)"/></radialGradient><path d=" M 189.677 690.682 C 173.734 690.682 160.671 678.35 159.504 662.706 C 159.744 662.54 159.981 662.378 160.221 662.214 C 164.748 665.926 170.538 668.152 176.849 668.152 C 191.346 668.152 203.096 656.4 203.096 641.904 C 203.096 639.404 202.746 636.982 202.094 634.692 C 202.648 634.342 203.212 633.988 203.766 633.642 C 213.38 638.71 219.934 648.802 219.934 660.424 C 219.934 677.134 206.388 690.682 189.677 690.682 Z " fill="url(#_rgradient_1)"/><linearGradient id="_lgradient_18" x1="0" y1="0.5" x2="1" y2="0.5" gradientTransform="matrix(50.763,0,0,45.892,150.601,615.656)" gradientUnits="userSpaceOnUse"><stop offset="1.7391304347826086%" stop-opacity="1" style="stop-color:rgb(132,105,110)"/><stop offset="98.26086956521739%" stop-opacity="1" style="stop-color:rgb(109,106,109)"/></linearGradient><path d=" M 159.439 661.548 C 154.018 656.738 150.601 649.72 150.601 641.904 C 150.601 627.408 162.354 615.656 176.849 615.656 C 188.035 615.656 197.586 622.652 201.364 632.508 C 197.769 631.002 193.82 630.168 189.677 630.168 C 172.966 630.168 159.419 643.714 159.419 660.424 C 159.419 660.8 159.426 661.174 159.439 661.548 Z " fill="url(#_lgradient_18)"/><linearGradient id="_lgradient_19" x1="0.06887176569822281" y1="0.6285595030570401" x2="0.8700246413604928" y2="0.2567683860391176" gradientTransform="matrix(42.675,0,0,32.046,159.419,630.168)" gradientUnits="userSpaceOnUse"><stop offset="2.608695652173913%" stop-opacity="1" style="stop-color:rgb(123,97,101)"/><stop offset="97.3913043478261%" stop-opacity="1" style="stop-color:rgb(106,101,106)"/></linearGradient><path d=" M 160.221 662.214 C 159.956 661.996 159.695 661.774 159.439 661.548 C 159.426 661.174 159.419 660.8 159.419 660.424 C 159.419 643.714 172.966 630.168 189.677 630.168 C 193.82 630.168 197.769 631.002 201.364 632.508 C 201.638 633.222 201.882 633.95 202.094 634.692 C 187.962 643.572 174.012 652.766 160.221 662.214 Z " fill="url(#_lgradient_19)"/><linearGradient id="_lgradient_20" x1="-0.017417557909164563" y1="0.6049401251643703" x2="1.083132848031558" y2="0.18110255681593657" gradientTransform="matrix(42.875,0,0,33.46,160.221,634.692)" gradientUnits="userSpaceOnUse"><stop offset="2.1739130434782608%" stop-opacity="1" style="stop-color:rgb(123,97,101)"/><stop offset="97.82608695652173%" stop-opacity="1" style="stop-color:rgb(98,93,98)"/><stop offset="99.1304347826087%" stop-opacity="1" style="stop-color:rgb(106,101,106)"/></linearGradient><path d=" M 176.849 668.152 C 170.538 668.152 164.748 665.926 160.221 662.214 C 174.012 652.766 187.962 643.572 202.094 634.692 C 202.746 636.982 203.096 639.404 203.096 641.904 C 203.096 656.4 191.346 668.152 176.849 668.152 Z " fill="url(#_lgradient_20)"/><path d=" M 1482.986 295.598 C 1478.394 289.748 1475.558 282.452 1475.266 274.51 C 1480.836 279.452 1488.168 282.452 1496.198 282.452 C 1497.484 282.452 1498.754 282.374 1500 282.224 L 1500 286.184 C 1494.3 289.27 1488.62 292.404 1482.986 295.598 Z " fill="rgb(62,90,88)"/><path d=" M 1500 307.642 C 1493.21 305.356 1487.316 301.12 1482.986 295.598 C 1488.62 292.404 1494.3 289.27 1500 286.184 L 1500 307.642 Z " fill="rgb(62,90,88)"/><linearGradient id="_lgradient_21" x1="-0.4989521945224098" y1="0.7188892121539295" x2="1.4496482811097433" y2="0.35160909731924594" gradientTransform="matrix(35.358,0,0,55.174,1464.642,219.336)" gradientUnits="userSpaceOnUse"><stop offset="0%" stop-opacity="1" style="stop-color:rgb(218,98,114)"/><stop offset="98.69565217391305%" stop-opacity="1" style="stop-color:rgb(77,89,89)"/></linearGradient><path d=" M 1475.266 274.51 C 1468.75 268.728 1464.642 260.29 1464.642 250.894 C 1464.642 233.464 1478.77 219.336 1496.198 219.336 C 1497.484 219.336 1498.754 219.412 1500 219.562 L 1500 238.676 C 1485.608 243.526 1475.242 257.132 1475.242 273.16 C 1475.242 273.612 1475.25 274.062 1475.266 274.51 Z " fill="url(#_lgradient_21)"/><linearGradient id="_lgradient_22" x1="-0.06362683128060098" y1="0.6622496488786888" x2="1.717623435062502" y2="0.5382609680378942" gradientTransform="matrix(24.758,0,0,43.776,1475.242,238.676)" gradientUnits="userSpaceOnUse"><stop offset="0%" stop-opacity="1" style="stop-color:rgb(156,86,97)"/><stop offset="98.26086956521739%" stop-opacity="1" style="stop-color:rgb(62,90,88)"/></linearGradient><path d=" M 1496.198 282.452 C 1488.168 282.452 1480.836 279.452 1475.266 274.51 C 1475.25 274.062 1475.242 273.612 1475.242 273.16 C 1475.242 257.132 1485.608 243.526 1500 238.676 L 1500 282.224 C 1498.754 282.374 1497.484 282.452 1496.198 282.452 Z " fill="url(#_lgradient_22)"/><radialGradient id="_rgradient_2" fx="0.5" fy="0.5" cx="0.5" cy="0.5" r="0.5" gradientTransform="matrix(128.914,0,0,104.688,1020.246,0)" gradientUnits="userSpaceOnUse"><stop offset="54.17872401672632%" stop-opacity="1" style="stop-color:rgb(110,93,97)"/><stop offset="98.26086956521739%" stop-opacity="1" style="stop-color:rgb(98,83,86)"/></radialGradient><path d=" M 1084.682 104.688 C 1049.874 104.688 1021.506 77.105 1020.246 42.604 C 1030.12 51.361 1043.112 56.678 1057.348 56.678 C 1088.238 56.678 1113.282 31.635 1113.282 0.744 C 1113.282 0.495 1113.28 0.248 1113.276 0 L 1135.09 0 C 1143.896 11.025 1149.16 25.001 1149.16 40.209 C 1149.16 75.82 1120.292 104.688 1084.682 104.688 Z " fill="url(#_rgradient_2)"/><clipPath id="_clipPath_P4csKHiKHPRSwN1x2BHdZA2qmAev53oh"><path d=" M 1084.682 104.688 C 1049.874 104.688 1021.506 77.105 1020.246 42.604 C 1030.12 51.361 1043.112 56.678 1057.348 56.678 C 1088.238 56.678 1113.282 31.635 1113.282 0.744 C 1113.282 0.495 1113.28 0.248 1113.276 0 L 1135.09 0 C 1143.896 11.025 1149.16 25.001 1149.16 40.209 C 1149.16 75.82 1120.292 104.688 1084.682 104.688 Z " fill="url(#_rgradient_2)"/></clipPath><g clip-path="url(#_clipPath_P4csKHiKHPRSwN1x2BHdZA2qmAev53oh)"/><linearGradient id="_lgradient_23" x1="0" y1="0.5" x2="1" y2="0.5" gradientTransform="matrix(32.862,0,0,42.604,1001.412,0)" gradientUnits="userSpaceOnUse"><stop offset="2.1739130434782608%" stop-opacity="1" style="stop-color:rgb(232,99,117)"/><stop offset="99.1304347826087%" stop-opacity="1" style="stop-color:rgb(193,101,114)"/></linearGradient><path d=" M 1020.246 42.604 C 1008.694 32.357 1001.412 17.4 1001.412 0.744 C 1001.412 0.495 1001.414 0.248 1001.416 0 L 1034.274 0 C 1025.466 11.025 1020.204 25.001 1020.204 40.209 C 1020.204 41.011 1020.218 41.809 1020.246 42.604 Z " fill="url(#_lgradient_23)"/><linearGradient id="_lgradient_24" x1="0.031099978906284978" y1="0.4130998911120981" x2="0.9997271931674888" y2="0.5007622816569113" gradientTransform="matrix(93.078,0,0,56.678,1020.204,0)" gradientUnits="userSpaceOnUse"><stop offset="1.7391304347826086%" stop-opacity="1" style="stop-color:rgb(204,100,114)"/><stop offset="99.1304347826087%" stop-opacity="1" style="stop-color:rgb(55,110,107)"/></linearGradient><path d=" M 1057.348 56.678 C 1043.112 56.678 1030.12 51.361 1020.246 42.604 C 1020.218 41.809 1020.204 41.011 1020.204 40.209 C 1020.204 25.001 1025.466 11.025 1034.274 0 L 1113.276 0 C 1113.28 0.248 1113.282 0.495 1113.282 0.744 C 1113.282 31.635 1088.238 56.678 1057.348 56.678 Z " fill="url(#_lgradient_24)"/><path d=" M 1328.236 911.16 L 1335.476 918.4 L 1342.716 911.16 L 1335.476 903.92 L 1328.236 911.16 Z " fill="rgb(254,254,254)"/><path d=" M 1369.194 911.16 L 1376.432 918.4 L 1383.672 911.16 L 1376.432 903.92 L 1369.194 911.16 Z " fill="rgb(254,254,254)"/><path d=" M 1410.148 911.16 L 1417.386 918.4 L 1424.626 911.16 L 1417.386 903.92 L 1410.148 911.16 Z " fill="rgb(254,254,254)"/><path d=" M 1386.148 194.394 L 1397.32 183.223 L 1386.148 172.052 L 1374.976 183.223 L 1386.148 194.394 Z " fill="rgb(254,254,254)"/><path d=" M 1386.148 131.198 L 1397.32 120.026 L 1386.148 108.855 L 1374.976 120.026 L 1386.148 131.198 Z " fill="rgb(254,254,254)"/><path d=" M 1386.148 68.004 L 1397.32 56.833 L 1386.148 45.661 L 1374.976 56.833 L 1386.148 68.004 Z " fill="rgb(254,254,254)"/><path d=" M 1270.772 846.452 L 1259.296 837.99 C 1257.458 836.632 1257.064 834.042 1258.422 832.2 C 1259.78 830.36 1262.372 829.966 1264.21 831.324 L 1270.686 836.098 C 1272.168 837.19 1274.192 837.174 1275.656 836.056 L 1285.34 828.662 C 1286.802 827.544 1288.828 827.53 1290.31 828.622 L 1300.122 835.854 C 1301.604 836.946 1303.626 836.928 1305.09 835.812 L 1314.786 828.414 C 1316.248 827.298 1318.272 827.282 1319.754 828.374 L 1329.566 835.608 C 1331.048 836.7 1333.072 836.682 1334.536 835.566 L 1344.234 828.168 C 1345.698 827.052 1347.72 827.036 1349.202 828.126 L 1360.69 836.588 C 1362.532 837.946 1362.926 840.538 1361.568 842.378 C 1360.21 844.22 1357.62 844.614 1355.78 843.256 L 1349.29 838.474 C 1347.806 837.384 1345.784 837.402 1344.32 838.518 L 1334.622 845.918 C 1333.158 847.034 1331.132 847.05 1329.652 845.958 L 1319.84 838.724 C 1318.358 837.632 1316.334 837.65 1314.872 838.766 L 1305.176 846.164 C 1303.712 847.28 1301.69 847.296 1300.208 846.206 L 1290.396 838.972 C 1288.916 837.88 1286.89 837.898 1285.428 839.016 L 1275.742 846.41 C 1274.28 847.528 1272.254 847.544 1270.772 846.452 Z " fill="rgb(254,254,254)"/><path d=" M 130.746 275.476 L 119.271 267.016 C 117.431 265.658 117.038 263.066 118.396 261.224 C 119.753 259.384 122.345 258.992 124.186 260.35 L 130.659 265.124 C 132.141 266.214 134.166 266.198 135.629 265.082 L 145.314 257.688 C 146.777 256.572 148.802 256.554 150.283 257.646 L 160.096 264.878 C 161.577 265.97 163.602 265.954 165.064 264.836 L 174.759 257.44 C 176.222 256.324 178.246 256.306 179.728 257.398 L 189.541 264.632 C 191.021 265.724 193.046 265.708 194.509 264.59 L 204.208 257.194 C 205.67 256.078 207.694 256.06 209.174 257.152 L 220.664 265.614 C 222.506 266.97 222.9 269.562 221.542 271.404 L 221.542 271.404 C 220.186 273.246 217.594 273.638 215.752 272.282 L 209.262 267.5 C 207.782 266.41 205.758 266.426 204.294 267.542 L 194.595 274.942 C 193.131 276.058 191.107 276.076 189.626 274.984 L 179.813 267.75 C 178.331 266.658 176.307 266.674 174.844 267.792 L 165.15 275.188 C 163.687 276.304 161.662 276.322 160.181 275.23 L 150.371 267.998 C 148.889 266.906 146.864 266.922 145.4 268.04 L 135.716 275.434 C 134.253 276.552 132.228 276.57 130.746 275.476 Z " fill="rgb(254,254,254)"/><path d=" M 1583.44 723.744 L 1583.44 723.744 C 1583.314 724.842 1584.1 725.834 1585.198 725.96 C 1586.296 726.088 1587.288 725.3 1587.414 724.204 L 1587.414 724.204 C 1587.542 723.106 1586.754 722.114 1585.658 721.988 C 1584.56 721.86 1583.568 722.648 1583.44 723.744 Z  M 1581.76 733.356 L 1581.76 733.356 C 1581.506 734.432 1582.172 735.508 1583.246 735.762 C 1584.322 736.016 1585.398 735.35 1585.652 734.274 L 1585.652 734.274 C 1585.906 733.2 1585.24 732.122 1584.164 731.87 C 1583.09 731.616 1582.012 732.282 1581.76 733.356 Z  M 1578.966 742.712 L 1578.966 742.712 C 1578.588 743.75 1579.124 744.896 1580.162 745.274 C 1581.2 745.652 1582.348 745.116 1582.724 744.078 L 1582.724 744.078 C 1583.102 743.04 1582.566 741.892 1581.528 741.516 C 1580.49 741.138 1579.344 741.674 1578.966 742.712 Z  M 1575.098 751.674 L 1575.098 751.674 C 1574.602 752.662 1575 753.864 1575.986 754.36 C 1576.974 754.856 1578.176 754.458 1578.672 753.472 L 1578.672 753.472 C 1579.168 752.484 1578.77 751.282 1577.784 750.786 C 1576.796 750.29 1575.594 750.688 1575.098 751.674 Z  M 1570.214 760.126 L 1570.214 760.126 C 1569.606 761.05 1569.862 762.29 1570.784 762.896 C 1571.706 763.504 1572.948 763.248 1573.554 762.326 L 1573.554 762.326 C 1574.162 761.404 1573.906 760.164 1572.984 759.556 C 1572.062 758.948 1570.82 759.204 1570.214 760.126 Z  M 1564.382 767.956 L 1564.382 767.956 C 1563.672 768.802 1563.782 770.064 1564.628 770.774 C 1565.474 771.484 1566.736 771.372 1567.446 770.526 L 1567.446 770.526 C 1568.156 769.68 1568.046 768.418 1567.2 767.71 C 1566.354 767 1565.092 767.11 1564.382 767.956 Z  M 1557.686 775.06 L 1557.686 775.06 C 1556.884 775.818 1556.848 777.084 1557.608 777.886 C 1558.366 778.69 1559.632 778.724 1560.434 777.966 L 1560.434 777.966 C 1561.238 777.208 1561.272 775.942 1560.514 775.138 C 1559.756 774.336 1558.49 774.3 1557.686 775.06 Z  M 1550.218 781.342 L 1550.218 781.342 C 1549.334 782.004 1549.152 783.256 1549.812 784.142 C 1550.474 785.026 1551.728 785.208 1552.612 784.546 C 1553.496 783.886 1553.678 782.632 1553.018 781.748 C 1552.356 780.862 1551.104 780.68 1550.218 781.342 Z  M 1542.076 786.718 L 1542.076 786.718 C 1541.12 787.272 1540.796 788.496 1541.35 789.452 C 1541.904 790.408 1543.128 790.732 1544.082 790.178 L 1544.082 790.178 C 1545.038 789.624 1545.364 788.4 1544.81 787.446 C 1544.256 786.49 1543.032 786.164 1542.076 786.718 Z  M 1533.368 791.112 L 1533.368 791.112 C 1532.354 791.55 1531.89 792.728 1532.328 793.742 C 1532.768 794.756 1533.946 795.222 1534.958 794.782 L 1534.958 794.782 C 1535.972 794.342 1536.438 793.164 1535.998 792.152 C 1535.56 791.138 1534.382 790.672 1533.368 791.112 Z  M 1524.204 794.462 L 1524.204 794.462 C 1523.146 794.778 1522.546 795.894 1522.864 796.952 C 1523.182 798.01 1524.296 798.61 1525.354 798.292 L 1525.354 798.292 C 1526.412 797.974 1527.012 796.86 1526.694 795.802 C 1526.376 794.744 1525.262 794.144 1524.204 794.462 Z  M 1514.71 796.716 L 1514.71 796.716 C 1513.622 796.908 1512.896 797.946 1513.088 799.034 C 1513.28 800.122 1514.318 800.848 1515.406 800.656 L 1515.406 800.656 C 1516.494 800.464 1517.22 799.426 1517.028 798.338 C 1516.836 797.25 1515.798 796.524 1514.71 796.716 Z  M 1505.018 797.852 L 1505.018 797.852 C 1503.914 797.918 1503.074 798.864 1503.138 799.966 C 1503.204 801.07 1504.15 801.91 1505.252 801.846 C 1506.356 801.78 1507.196 800.834 1507.132 799.732 C 1507.066 798.628 1506.12 797.788 1505.018 797.852 Z  M 1495.254 797.868 L 1495.254 797.868 C 1494.152 797.806 1493.208 798.652 1493.146 799.754 C 1493.084 800.856 1493.93 801.8 1495.032 801.862 L 1495.032 801.862 C 1496.136 801.924 1497.078 801.08 1497.14 799.976 C 1497.202 798.874 1496.358 797.93 1495.254 797.868 Z  M 1485.558 796.764 L 1485.558 796.764 C 1484.47 796.574 1483.434 797.304 1483.246 798.392 C 1483.058 799.482 1483.786 800.516 1484.876 800.704 C 1485.964 800.894 1486.998 800.164 1487.188 799.076 C 1487.376 797.988 1486.646 796.952 1485.558 796.764 Z  M 1476.058 794.54 L 1476.058 794.54 C 1474.998 794.224 1473.886 794.828 1473.572 795.888 C 1473.256 796.946 1473.86 798.06 1474.92 798.374 C 1475.978 798.688 1477.092 798.084 1477.406 797.026 C 1477.72 795.966 1477.116 794.854 1476.058 794.54 Z  M 1466.878 791.218 L 1466.878 791.218 C 1465.862 790.782 1464.686 791.252 1464.25 792.266 C 1463.814 793.282 1464.284 794.458 1465.3 794.894 L 1465.298 794.894 C 1466.314 795.33 1467.49 794.86 1467.926 793.844 C 1468.362 792.83 1467.892 791.654 1466.878 791.218 Z  M 1458.148 786.848 L 1458.148 786.848 C 1457.19 786.296 1455.968 786.626 1455.416 787.584 C 1454.866 788.54 1455.196 789.764 1456.152 790.314 L 1456.152 790.314 C 1457.11 790.866 1458.332 790.536 1458.884 789.58 C 1459.434 788.622 1459.106 787.4 1458.148 786.848 Z  M 1449.986 781.494 L 1449.986 781.494 C 1449.098 780.836 1447.846 781.02 1447.188 781.908 C 1446.53 782.794 1446.714 784.048 1447.602 784.706 L 1447.602 784.706 C 1448.488 785.364 1449.74 785.178 1450.4 784.292 C 1451.058 783.404 1450.872 782.152 1449.986 781.494 Z  M 1442.496 775.232 L 1442.496 775.232 C 1441.692 774.476 1440.426 774.516 1439.67 775.32 C 1438.914 776.126 1438.952 777.39 1439.758 778.148 L 1439.758 778.148 C 1440.562 778.904 1441.828 778.864 1442.584 778.06 C 1443.342 777.254 1443.302 775.988 1442.496 775.232 Z  M 1435.78 768.15 L 1435.78 768.15 C 1435.068 767.304 1433.806 767.198 1432.962 767.91 C 1432.118 768.624 1432.012 769.886 1432.724 770.73 L 1432.724 770.73 C 1433.436 771.574 1434.698 771.68 1435.542 770.968 C 1436.386 770.256 1436.492 768.994 1435.78 768.15 Z  M 1429.928 760.34 L 1429.928 760.34 C 1429.318 759.42 1428.076 759.168 1427.156 759.778 C 1426.234 760.388 1425.984 761.63 1426.594 762.55 L 1426.594 762.55 C 1427.204 763.47 1428.444 763.722 1429.366 763.112 C 1430.286 762.502 1430.538 761.262 1429.928 760.34 Z  M 1425.02 751.91 L 1425.02 751.91 C 1424.52 750.924 1423.318 750.53 1422.332 751.03 C 1421.346 751.528 1420.952 752.732 1421.452 753.718 L 1421.452 753.718 C 1421.952 754.702 1423.154 755.096 1424.14 754.598 C 1425.126 754.098 1425.52 752.894 1425.02 751.91 Z  M 1421.126 742.962 L 1421.126 742.962 C 1420.744 741.924 1419.596 741.394 1418.558 741.774 C 1417.522 742.154 1416.99 743.304 1417.37 744.34 L 1417.372 744.34 C 1417.752 745.378 1418.902 745.91 1419.938 745.528 C 1420.974 745.148 1421.506 743.998 1421.126 742.962 Z  M 1418.304 733.622 L 1418.304 733.622 C 1418.046 732.548 1416.968 731.884 1415.894 732.142 C 1414.818 732.398 1414.156 733.478 1414.414 734.552 L 1414.414 734.552 C 1414.67 735.626 1415.75 736.29 1416.824 736.032 C 1417.898 735.774 1418.56 734.696 1418.304 733.622 Z  M 1416.59 724.016 L 1416.59 724.016 C 1416.46 722.918 1415.466 722.134 1414.368 722.264 C 1413.272 722.396 1412.488 723.39 1412.618 724.486 L 1412.618 724.486 C 1412.748 725.584 1413.744 726.368 1414.84 726.236 C 1415.938 726.106 1416.72 725.112 1416.59 724.016 Z  M 1416 714.272 L 1416 714.272 C 1415.996 713.168 1415.098 712.276 1413.994 712.278 C 1412.89 712.282 1411.996 713.18 1412 714.286 C 1412.004 715.39 1412.902 716.282 1414.006 716.278 C 1415.112 716.276 1416.004 715.378 1416 714.272 Z  M 1416.528 704.526 L 1416.528 704.526 C 1416.652 703.428 1415.862 702.438 1414.764 702.316 C 1413.666 702.192 1412.676 702.982 1412.554 704.08 L 1412.554 704.08 C 1412.43 705.178 1413.22 706.168 1414.318 706.29 C 1415.416 706.414 1416.404 705.624 1416.528 704.526 Z  M 1418.178 694.908 L 1418.178 694.908 C 1418.428 693.832 1417.76 692.758 1416.684 692.508 C 1415.608 692.258 1414.532 692.928 1414.282 694.002 L 1414.282 694.002 C 1414.032 695.078 1414.702 696.154 1415.778 696.404 C 1416.854 696.654 1417.928 695.984 1418.178 694.908 Z  M 1420.942 685.544 L 1420.942 685.544 C 1421.316 684.506 1420.776 683.36 1419.738 682.986 C 1418.698 682.612 1417.552 683.15 1417.178 684.19 L 1417.178 684.19 C 1416.804 685.23 1417.344 686.374 1418.382 686.748 C 1419.422 687.124 1420.568 686.584 1420.942 685.544 Z  M 1424.78 676.568 L 1424.78 676.568 C 1425.272 675.58 1424.87 674.38 1423.882 673.886 C 1422.894 673.394 1421.692 673.796 1421.2 674.784 L 1421.2 674.784 C 1420.708 675.772 1421.108 676.974 1422.098 677.466 C 1423.086 677.96 1424.286 677.558 1424.78 676.568 Z  M 1429.638 668.1 L 1429.638 668.1 C 1430.242 667.176 1429.982 665.936 1429.058 665.332 C 1428.132 664.728 1426.894 664.988 1426.29 665.912 L 1426.29 665.912 C 1425.684 666.836 1425.944 668.076 1426.868 668.68 C 1427.794 669.284 1429.032 669.026 1429.638 668.1 Z  M 1435.444 660.252 L 1435.444 660.252 C 1436.15 659.404 1436.036 658.144 1435.188 657.436 C 1434.338 656.728 1433.078 656.844 1432.37 657.692 L 1432.37 657.692 C 1431.664 658.54 1431.778 659.802 1432.626 660.508 C 1433.474 661.216 1434.736 661.102 1435.442 660.252 L 1435.444 660.252 Z  M 1442.116 653.128 L 1442.116 653.128 C 1442.916 652.366 1442.948 651.1 1442.186 650.3 C 1441.424 649.5 1440.16 649.468 1439.358 650.23 C 1438.558 650.992 1438.526 652.256 1439.288 653.058 C 1440.05 653.858 1441.316 653.89 1442.116 653.128 Z  M 1449.564 646.822 L 1449.564 646.822 C 1450.446 646.158 1450.624 644.904 1449.96 644.02 C 1449.296 643.138 1448.042 642.96 1447.16 643.624 C 1446.276 644.288 1446.1 645.542 1446.764 646.424 C 1447.428 647.308 1448.682 647.484 1449.564 646.822 Z  M 1457.688 641.418 L 1457.688 641.418 C 1458.642 640.862 1458.964 639.636 1458.406 638.682 C 1457.85 637.728 1456.624 637.408 1455.67 637.964 C 1454.718 638.522 1454.396 639.746 1454.952 640.7 C 1455.51 641.654 1456.734 641.976 1457.688 641.418 Z  M 1466.382 636.996 L 1466.382 636.996 C 1467.394 636.554 1467.856 635.376 1467.414 634.364 C 1466.972 633.352 1465.792 632.89 1464.78 633.332 L 1464.78 633.332 C 1463.768 633.774 1463.306 634.954 1463.748 635.966 C 1464.192 636.978 1465.37 637.44 1466.382 636.996 Z  M 1475.536 633.618 L 1475.536 633.618 C 1476.594 633.296 1477.19 632.18 1476.868 631.122 C 1476.546 630.066 1475.43 629.47 1474.374 629.79 L 1474.374 629.79 C 1473.316 630.112 1472.72 631.228 1473.042 632.286 C 1473.362 633.342 1474.48 633.938 1475.536 633.618 Z  M 1485.022 631.332 L 1485.022 631.332 C 1486.11 631.136 1486.832 630.096 1486.636 629.008 C 1486.44 627.922 1485.4 627.198 1484.314 627.394 L 1484.314 627.394 C 1483.226 627.59 1482.504 628.63 1482.7 629.716 C 1482.896 630.804 1483.934 631.526 1485.022 631.332 Z  M 1494.71 630.164 L 1494.71 630.164 C 1495.814 630.096 1496.652 629.146 1496.584 628.044 C 1496.514 626.942 1495.566 626.102 1494.462 626.172 L 1494.464 626.172 C 1493.36 626.24 1492.522 627.188 1492.59 628.292 C 1492.66 629.394 1493.608 630.232 1494.71 630.164 Z  M 1504.474 630.118 L 1504.474 630.118 C 1505.576 630.174 1506.518 629.328 1506.576 628.224 C 1506.634 627.122 1505.786 626.18 1504.684 626.122 L 1504.684 626.122 C 1503.58 626.064 1502.64 626.912 1502.582 628.016 C 1502.524 629.118 1503.37 630.06 1504.474 630.118 Z  M 1514.174 631.19 L 1514.174 631.19 C 1515.262 631.376 1516.296 630.642 1516.48 629.554 C 1516.666 628.464 1515.932 627.432 1514.844 627.246 C 1513.754 627.062 1512.722 627.794 1512.536 628.884 C 1512.352 629.972 1513.084 631.006 1514.174 631.19 Z  M 1523.682 633.384 L 1523.682 633.384 C 1524.742 633.694 1525.852 633.088 1526.164 632.028 C 1526.474 630.968 1525.868 629.856 1524.808 629.546 L 1524.808 629.546 C 1523.748 629.234 1522.636 629.842 1522.326 630.902 C 1522.014 631.962 1522.622 633.072 1523.682 633.384 Z  M 1532.872 636.676 L 1532.872 636.676 C 1533.888 637.108 1535.064 636.634 1535.496 635.618 C 1535.928 634.602 1535.456 633.428 1534.438 632.994 L 1534.44 632.994 C 1533.422 632.562 1532.248 633.036 1531.816 634.052 C 1531.382 635.068 1531.856 636.242 1532.872 636.676 Z  M 1541.616 641.016 L 1541.616 641.016 C 1542.574 641.564 1543.796 641.232 1544.344 640.272 C 1544.892 639.314 1544.56 638.092 1543.6 637.544 L 1543.6 637.544 C 1542.642 636.996 1541.42 637.328 1540.872 638.288 C 1540.324 639.246 1540.656 640.468 1541.616 641.016 Z  M 1549.796 646.344 L 1549.796 646.344 C 1550.686 647 1551.938 646.81 1552.592 645.922 C 1553.248 645.032 1553.058 643.78 1552.17 643.124 L 1552.17 643.124 C 1551.28 642.47 1550.028 642.658 1549.374 643.548 C 1548.718 644.436 1548.906 645.688 1549.796 646.344 Z  M 1557.306 652.582 L 1557.306 652.582 C 1558.112 653.336 1559.378 653.292 1560.132 652.484 C 1560.886 651.678 1560.842 650.412 1560.034 649.658 C 1559.228 648.904 1557.962 648.948 1557.208 649.756 C 1556.454 650.562 1556.498 651.828 1557.306 652.582 Z  M 1564.044 659.644 L 1564.044 659.644 C 1564.76 660.486 1566.022 660.588 1566.864 659.872 C 1567.704 659.158 1567.808 657.896 1567.092 657.054 L 1567.092 657.054 C 1566.378 656.212 1565.114 656.11 1564.274 656.824 C 1563.432 657.54 1563.328 658.802 1564.044 659.644 Z  M 1569.922 667.434 L 1569.922 667.434 C 1570.534 668.352 1571.776 668.6 1572.696 667.986 C 1573.614 667.374 1573.862 666.132 1573.248 665.214 L 1573.248 665.212 C 1572.636 664.294 1571.394 664.046 1570.476 664.66 C 1569.556 665.272 1569.308 666.514 1569.922 667.434 Z  M 1574.856 675.848 L 1574.856 675.848 C 1575.358 676.832 1576.564 677.222 1577.548 676.72 C 1578.532 676.218 1578.922 675.012 1578.418 674.03 L 1578.418 674.03 C 1577.916 673.046 1576.712 672.656 1575.728 673.158 C 1574.744 673.66 1574.354 674.864 1574.856 675.848 Z  M 1578.78 684.784 L 1578.78 684.784 C 1579.164 685.82 1580.316 686.348 1581.35 685.962 C 1582.386 685.578 1582.914 684.428 1582.53 683.392 C 1582.146 682.356 1580.994 681.828 1579.96 682.212 C 1578.924 682.596 1578.396 683.748 1578.78 684.784 Z  M 1581.632 694.114 L 1581.632 694.114 C 1581.894 695.188 1582.974 695.846 1584.048 695.586 C 1585.122 695.326 1585.78 694.244 1585.52 693.172 L 1585.52 693.172 C 1585.26 692.098 1584.178 691.438 1583.104 691.7 C 1582.032 691.96 1581.372 693.042 1581.632 694.114 Z  M 1583.376 703.716 L 1583.376 703.716 C 1583.51 704.812 1584.508 705.592 1585.604 705.458 C 1586.7 705.324 1587.482 704.326 1587.348 703.23 C 1587.214 702.134 1586.216 701.354 1585.12 701.488 C 1584.024 701.622 1583.242 702.618 1583.376 703.716 Z  M 1583.998 713.456 L 1583.998 713.456 C 1584.006 714.56 1584.906 715.45 1586.01 715.442 C 1587.116 715.436 1588.006 714.534 1587.998 713.43 L 1587.998 713.43 C 1587.992 712.326 1587.09 711.436 1585.986 711.442 C 1584.88 711.45 1583.992 712.35 1583.998 713.456 Z  M 1584 714 L 1584 714 C 1584 715.104 1584.896 716 1586 716 C 1587.104 716 1588 715.104 1588 714 L 1588 714 C 1588 712.896 1587.104 712 1586 712 C 1584.896 712 1584 712.896 1584 714 Z " fill="rgb(254,254,254)"/><path d=" M 1202.246 637.664 L 1081.334 510.956 C 1079.608 509.146 1079.12 506.47 1080.126 504.182 C 1080.248 503.904 1080.372 503.626 1080.496 503.354 L 1205.524 634.378 C 1204.438 635.482 1203.346 636.578 1202.246 637.664 Z " fill="rgb(227,98,116)"/><path d=" M 1228.424 662.306 C 1226.752 662.306 1225.112 661.628 1223.916 660.372 L 1202.246 637.664 C 1203.346 636.578 1204.438 635.482 1205.524 634.378 L 1231.47 661.568 C 1231.19 661.678 1230.908 661.788 1230.626 661.898 C 1229.91 662.174 1229.164 662.306 1228.424 662.306 Z " fill="rgb(227,98,116)"/><path d=" M 1213.192 626.318 L 1089.076 496.25 C 1087.154 494.238 1086.854 491.174 1088.344 488.826 L 1088.368 488.786 L 1216.32 622.874 C 1215.284 624.032 1214.242 625.176 1213.192 626.318 Z " fill="rgb(227,98,116)"/><path d=" M 1243.35 655.204 C 1241.736 655.204 1240.142 654.56 1238.968 653.33 L 1213.192 626.318 C 1214.242 625.176 1215.284 624.032 1216.32 622.874 L 1246.388 654.384 L 1246.348 654.408 C 1245.408 654.944 1244.376 655.204 1243.35 655.204 Z " fill="rgb(227,98,116)"/><path d=" M 1223.648 614.456 L 1094.89 479.524 C 1095.85 478.292 1096.842 477.092 1097.848 475.9 L 1226.642 610.87 C 1225.648 612.074 1224.654 613.266 1223.648 614.456 Z " fill="rgb(227,98,116)"/><path d=" M 1255.948 648.304 L 1223.648 614.456 C 1224.654 613.266 1225.648 612.074 1226.642 610.87 L 1259.704 645.52 C 1258.466 646.468 1257.22 647.404 1255.948 648.304 Z " fill="rgb(227,98,116)"/><path d=" M 1178.666 658.59 L 1072.202 547.022 C 1070.996 545.758 1070.358 544.038 1070.496 542.294 C 1070.588 541.142 1070.698 539.996 1070.822 538.854 L 1182.294 655.67 C 1181.094 656.654 1179.882 657.63 1178.666 658.59 Z " fill="rgb(227,98,116)"/><path d=" M 1191.906 669.736 C 1190.226 669.736 1188.622 669.024 1187.462 667.806 L 1178.666 658.59 C 1179.882 657.63 1181.094 656.654 1182.294 655.67 L 1195.556 669.568 C 1194.41 669.638 1193.258 669.696 1192.104 669.732 C 1192.038 669.734 1191.972 669.736 1191.906 669.736 Z " fill="rgb(227,98,116)"/><path d=" M 1144.238 661.424 C 1140.602 659.97 1137.062 658.33 1133.618 656.532 C 1133 656.208 1132.44 655.784 1131.956 655.278 L 1082.122 603.052 C 1081.638 602.546 1081.238 601.966 1080.944 601.332 C 1079.31 597.808 1077.838 594.198 1076.554 590.496 L 1144.238 661.424 Z " fill="rgb(227,98,116)"/><path d=" M 1190.756 648.444 L 1075.502 527.662 C 1074.024 526.112 1073.406 523.894 1073.95 521.82 C 1074.122 521.168 1074.296 520.516 1074.48 519.868 L 1194.202 645.33 C 1193.062 646.378 1191.912 647.416 1190.756 648.444 Z " fill="rgb(227,98,116)"/><path d=" M 1211.476 667.372 C 1209.788 667.372 1208.144 666.662 1206.954 665.418 L 1190.756 648.444 C 1191.912 647.416 1193.062 646.378 1194.202 645.33 L 1214.692 666.802 C 1214.036 666.954 1213.376 667.102 1212.716 667.242 C 1212.304 667.33 1211.888 667.372 1211.476 667.372 Z " fill="rgb(227,98,116)"/><path d=" M 1166.376 667.7 C 1165.536 667.368 1164.776 666.852 1164.146 666.194 L 1072.724 570.386 C 1071.814 569.434 1071.218 568.218 1071.046 566.914 C 1070.8 565.044 1070.592 563.168 1070.442 561.272 L 1169.736 665.326 C 1168.622 666.128 1167.5 666.92 1166.376 667.7 Z " fill="rgb(227,98,116)"/><path d=" M 1173.144 668.898 C 1171.258 668.66 1169.39 668.364 1167.538 668.032 C 1167.138 667.958 1166.748 667.848 1166.376 667.7 C 1167.5 666.92 1168.622 666.128 1169.736 665.326 L 1173.144 668.898 Z " fill="rgb(227,98,116)"/><path d=" M 1243.26 589.372 L 1117.39 457.468 C 1118.64 456.532 1119.906 455.618 1121.194 454.73 L 1246.016 585.54 C 1245.102 586.824 1244.188 588.096 1243.26 589.372 Z " fill="rgb(227,98,116)"/><path d=" M 1279.032 626.86 L 1243.26 589.372 C 1244.188 588.096 1245.102 586.824 1246.016 585.54 L 1281.944 623.19 C 1280.998 624.434 1280.026 625.654 1279.032 626.86 Z " fill="rgb(227,98,116)"/><path d=" M 1286.476 520.57 L 1205.014 435.202 C 1206.96 435.482 1208.892 435.808 1210.808 436.182 C 1212.07 436.428 1213.218 437.078 1214.106 438.006 L 1288.866 516.352 C 1288.07 517.758 1287.272 519.166 1286.476 520.57 Z " fill="rgb(227,98,116)"/><path d=" M 1305.374 540.374 L 1286.476 520.57 C 1287.272 519.166 1288.07 517.758 1288.866 516.352 L 1302.998 531.162 C 1303.886 532.092 1304.478 533.27 1304.666 534.54 C 1304.948 536.472 1305.186 538.418 1305.374 540.374 Z " fill="rgb(227,98,116)"/><path d=" M 1294.562 506.228 L 1234.836 443.636 C 1238.794 445.348 1242.64 447.258 1246.358 449.376 C 1246.902 449.686 1247.398 450.078 1247.834 450.534 L 1292.064 496.886 C 1292.498 497.34 1292.866 497.854 1293.152 498.414 C 1294.086 500.25 1294.972 502.114 1295.81 504.004 C 1295.392 504.748 1294.98 505.484 1294.562 506.228 Z " fill="rgb(227,98,116)"/><path d=" M 1298.346 510.192 L 1294.562 506.228 C 1294.98 505.484 1295.392 504.748 1295.81 504.004 C 1296.71 506.038 1297.556 508.102 1298.346 510.192 Z " fill="rgb(227,98,116)"/><path d=" M 1278.294 534.814 L 1182.208 434.122 C 1183.402 434.064 1184.598 434.024 1185.798 434.002 C 1185.836 434.002 1185.872 434.002 1185.908 434.002 C 1187.586 434.002 1189.192 434.714 1190.352 435.93 L 1280.718 530.632 C 1279.912 532.028 1279.104 533.422 1278.294 534.814 Z " fill="rgb(227,98,116)"/><path d=" M 1305.386 563.206 L 1278.294 534.814 C 1279.104 533.422 1279.912 532.028 1280.718 530.632 L 1303.96 554.988 C 1305.144 556.23 1305.786 557.91 1305.674 559.624 C 1305.596 560.824 1305.498 562.018 1305.386 563.206 Z " fill="rgb(227,98,116)"/><path d=" M 1261.38 562.728 L 1145.906 441.714 C 1146.226 441.592 1146.546 441.472 1146.864 441.352 C 1147.546 441.096 1148.256 440.974 1148.958 440.974 C 1150.632 440.974 1152.278 441.67 1153.474 442.922 L 1263.94 558.684 C 1263.092 560.034 1262.24 561.38 1261.38 562.728 Z " fill="rgb(227,98,116)"/><path d=" M 1296.102 599.114 L 1261.38 562.728 C 1262.24 561.38 1263.092 560.034 1263.94 558.684 L 1295.25 591.496 C 1296.948 593.278 1297.48 595.91 1296.51 598.172 C 1296.374 598.486 1296.238 598.798 1296.102 599.114 Z " fill="rgb(227,98,116)"/><path d=" M 1252.49 576.228 L 1130.842 448.744 L 1130.936 448.694 C 1131.862 448.18 1132.874 447.93 1133.88 447.93 C 1135.498 447.93 1137.096 448.576 1138.274 449.81 L 1255.144 572.286 C 1254.264 573.606 1253.384 574.916 1252.49 576.228 Z " fill="rgb(227,98,116)"/><path d=" M 1288.374 613.832 L 1252.49 576.228 C 1253.384 574.916 1254.264 573.606 1255.144 572.286 L 1287.584 606.284 C 1289.536 608.326 1289.86 611.43 1288.374 613.832 Z " fill="rgb(227,98,116)"/><path d=" M 1233.658 602.128 L 1105.42 467.74 C 1106.524 466.656 1107.652 465.598 1108.798 464.558 L 1236.528 598.412 C 1235.576 599.658 1234.622 600.892 1233.658 602.128 Z " fill="rgb(227,98,116)"/><path d=" M 1268.212 638.338 L 1233.658 602.128 C 1234.622 600.892 1235.576 599.658 1236.528 598.412 L 1271.546 635.112 C 1270.456 636.208 1269.346 637.286 1268.212 638.338 Z " fill="rgb(227,98,116)"/><path d=" M 1269.96 548.898 L 1162.862 436.664 C 1163.548 436.514 1164.24 436.37 1164.932 436.232 C 1165.32 436.154 1165.712 436.116 1166.1 436.116 C 1167.788 436.116 1169.432 436.826 1170.62 438.072 L 1272.434 544.768 C 1271.614 546.146 1270.786 547.526 1269.96 548.898 Z " fill="rgb(227,98,116)"/><path d=" M 1301.942 582.414 L 1269.96 548.898 C 1270.786 547.526 1271.614 546.146 1272.434 544.768 L 1300.898 574.598 C 1302.36 576.128 1302.98 578.31 1302.468 580.364 C 1302.298 581.05 1302.122 581.732 1301.942 582.414 Z " fill="rgb(227,98,116)"/><path d=" M 234.67 1000 L 224.648 1000 L 208.366 982.938 C 205.668 980.112 204.908 975.932 206.48 972.354 C 206.67 971.92 206.862 971.49 207.056 971.06 L 234.67 1000 Z " fill="rgb(77,89,89)"/><path d=" M 268.686 1000 L 258.666 1000 L 220.46 959.962 C 217.46 956.82 216.988 952.036 219.316 948.366 L 219.356 948.302 L 268.686 1000 Z " fill="rgb(77,89,89)"/><path d=" M 282.682 989.52 L 229.544 933.834 C 231.042 931.91 232.594 930.034 234.164 928.172 L 288.252 984.854 C 286.392 986.408 284.538 987.962 282.682 989.52 Z " fill="rgb(77,89,89)"/><path d=" M 302.706 1000 L 292.682 1000 L 282.682 989.52 C 284.538 987.962 286.392 986.408 288.252 984.854 L 302.706 1000 Z " fill="rgb(77,89,89)"/><path d=" M 200.654 1000 L 196.807 1000 C 196.814 999.97 196.821 999.942 196.829 999.912 C 197.097 998.89 197.373 997.874 197.657 996.86 L 200.654 1000 Z " fill="rgb(73,88,99)"/><path d=" M 303.446 929.482 C 296.06 925.682 288.824 921.628 281.784 917.284 L 264.696 899.376 C 266.65 897.914 268.626 896.484 270.638 895.1 L 303.446 929.482 Z " fill="rgb(77,89,89)"/><path d=" M 320.76 958.13 L 281.784 917.284 C 288.824 921.628 296.06 925.682 303.446 929.482 L 326.424 953.562 C 324.534 955.082 322.648 956.604 320.76 958.13 Z " fill="rgb(77,89,89)"/><path d=" M 370.738 1000 L 360.714 1000 L 320.76 958.13 C 322.648 956.604 324.534 955.082 326.424 953.562 L 370.738 1000 Z " fill="rgb(77,89,89)"/><path d=" M 418.95 882.788 L 401.586 864.59 C 404.628 865.03 407.646 865.54 410.638 866.124 C 412.61 866.508 414.404 867.52 415.79 868.972 L 424.902 878.522 C 422.916 879.938 420.93 881.362 418.95 882.788 Z " fill="rgb(77,89,89)"/><path d=" M 540.82 1000 L 530.8 1000 L 418.95 882.788 C 420.93 881.362 422.916 879.938 424.902 878.522 L 540.82 1000 Z " fill="rgb(77,89,89)"/><path d=" M 547.396 981.742 L 448.176 877.766 C 454.358 880.444 460.37 883.426 466.174 886.732 C 467.028 887.218 467.802 887.832 468.482 888.542 L 537.582 960.958 C 538.26 961.666 538.836 962.47 539.282 963.346 C 542.312 969.298 545.01 975.444 547.396 981.742 Z " fill="rgb(77,89,89)"/><path d=" M 398.912 897.436 L 365.96 862.902 C 367.822 862.812 369.692 862.75 371.568 862.716 C 371.624 862.716 371.68 862.716 371.736 862.716 C 374.358 862.716 376.864 863.83 378.678 865.73 L 404.79 893.094 C 402.826 894.54 400.872 895.984 398.912 897.436 Z " fill="rgb(77,89,89)"/><path d=" M 502.97 995.982 C 498.216 994.442 493.446 992.946 488.658 991.486 L 398.912 897.436 C 400.872 895.984 402.826 894.54 404.79 893.094 L 502.97 995.982 Z " fill="rgb(77,89,89)"/><path d=" M 506.804 1000 L 496.782 1000 L 488.658 991.486 C 493.446 992.946 498.216 994.442 502.97 995.982 L 506.804 1000 Z " fill="rgb(83,89,104)"/><path d=" M 359.488 927.418 L 309.246 874.766 C 309.744 874.574 310.244 874.384 310.742 874.2 C 311.808 873.8 312.914 873.608 314.012 873.608 C 316.628 873.608 319.2 874.694 321.068 876.652 L 365.25 922.952 C 364.346 923.648 363.452 924.342 362.55 925.042 C 361.53 925.832 360.506 926.626 359.488 927.418 Z " fill="rgb(77,89,89)"/><path d=" M 409.106 968.912 C 404.47 967.582 399.828 966.224 395.19 964.832 L 359.488 927.418 C 360.506 926.626 361.53 925.832 362.55 925.042 C 363.452 924.342 364.346 923.648 365.25 922.952 L 409.106 968.912 Z " fill="rgb(77,89,89)"/><path d=" M 438.772 1000 L 428.748 1000 L 395.19 964.832 C 399.828 966.224 404.47 967.582 409.106 968.912 L 438.772 1000 Z " fill="rgb(77,89,89)"/><path d=" M 340.042 942.688 L 285.71 885.75 L 285.858 885.668 C 287.302 884.866 288.884 884.476 290.456 884.476 C 292.984 884.476 295.482 885.486 297.32 887.412 L 345.756 938.172 C 343.85 939.674 341.944 941.18 340.042 942.688 Z " fill="rgb(77,89,89)"/><path d=" M 360.486 953.608 C 355.312 951.79 350.164 949.902 345.052 947.938 L 340.042 942.688 C 341.944 941.18 343.85 939.674 345.756 938.172 L 360.486 953.608 Z " fill="rgb(77,89,89)"/><path d=" M 404.754 1000 L 394.732 1000 L 345.052 947.938 C 350.164 949.902 355.312 951.79 360.486 953.608 L 404.754 1000 Z " fill="rgb(77,89,89)"/><path d=" M 301.64 973.74 L 245.994 915.424 C 247.718 913.73 249.482 912.078 251.272 910.454 L 307.258 969.122 C 305.384 970.66 303.51 972.198 301.64 973.74 Z " fill="rgb(77,89,89)"/><path d=" M 336.722 1000 L 326.698 1000 L 301.64 973.74 C 303.51 972.198 305.384 970.66 307.258 969.122 L 336.722 1000 Z " fill="rgb(77,89,89)"/><path d=" M 379.102 912.324 L 335.732 866.874 C 336.808 866.64 337.886 866.414 338.968 866.2 C 339.576 866.078 340.186 866.02 340.792 866.02 C 343.428 866.02 345.998 867.13 347.852 869.074 L 384.918 907.916 C 382.972 909.386 381.042 910.85 379.102 912.324 Z " fill="rgb(77,89,89)"/><path d=" M 455.472 981.854 C 450.926 980.582 446.382 979.324 441.834 978.064 L 379.102 912.324 C 381.042 910.85 382.972 909.386 384.918 907.916 L 455.472 981.854 Z " fill="rgb(77,89,89)"/><path d=" M 472.788 1000 L 462.766 1000 L 441.834 978.064 C 446.382 979.324 450.926 980.582 455.472 981.854 L 472.788 1000 Z " fill="rgb(77,89,89)"/><path d=" M 1394 544 L 1394 543 L 1377 543 L 1377 243 L 1393 243 L 1393 544 L 1394 544 L 1394 543 L 1394 544 L 1395 544 L 1395 241 L 1375 241 L 1375 545 L 1395 545 L 1395 544 L 1394 544 Z " fill="rgb(254,254,254)"/><path d=" M 95.065 1158.968 L 95.065 1157.968 L 78.065 1157.968 L 78.065 857.968 L 94.065 857.968 L 94.065 1158.968 L 95.065 1158.968 L 95.065 1157.968 L 95.065 1158.968 L 96.065 1158.968 L 96.065 855.968 L 76.065 855.968 L 76.065 1159.968 L 96.065 1159.968 L 96.065 1158.968 L 95.065 1158.968 Z " fill="rgb(254,254,254)"/><path d=" M 486.194 -2.294 L 485.194 -2.294 C 485.194 11.93 479.432 24.798 470.11 34.12 C 460.788 43.441 447.92 49.203 433.696 49.203 C 419.472 49.203 406.604 43.441 397.282 34.12 C 387.962 24.798 382.2 11.93 382.2 -2.294 C 382.2 -16.518 387.962 -29.385 397.282 -38.708 C 406.604 -48.029 419.472 -53.791 433.696 -53.791 C 447.92 -53.791 460.788 -48.029 470.11 -38.708 C 479.432 -29.385 485.194 -16.518 485.194 -2.294 L 486.194 -2.294 L 487.194 -2.294 C 487.194 -31.84 463.244 -55.79 433.696 -55.791 C 404.15 -55.79 380.2 -31.84 380.2 -2.294 C 380.2 27.252 404.15 51.202 433.696 51.203 C 463.244 51.202 487.194 27.252 487.194 -2.294 L 486.194 -2.294 Z " fill="rgb(254,254,254)"/><path d=" M 57.216 588.676 L 52.216 588.676 C 52.213 601.808 46.907 613.65 38.304 622.262 C 29.693 630.866 17.85 636.172 4.718 636.174 C -8.414 636.172 -20.257 630.866 -28.868 622.262 C -37.471 613.65 -42.777 601.808 -42.779 588.676 C -42.777 575.544 -37.471 563.702 -28.868 555.092 C -20.257 546.488 -8.414 541.182 4.718 541.18 C 17.85 541.182 29.693 546.488 38.304 555.092 C 46.907 563.702 52.213 575.544 52.216 588.676 L 57.216 588.676 L 62.216 588.676 C 62.213 556.92 36.475 531.182 4.718 531.18 C -27.039 531.182 -52.776 556.92 -52.779 588.676 C -52.776 620.434 -27.039 646.17 4.718 646.174 C 36.475 646.17 62.213 620.434 62.216 588.676 L 57.216 588.676 Z " fill="rgb(254,254,254)"/></g></g></g></svg>