<?xml version="1.0" encoding="UTF-8" standalone="no"?><!-- Generator: Gravit.io --><svg xmlns="http://www.w3.org/2000/svg" xmlns:xlink="http://www.w3.org/1999/xlink" style="isolation:isolate" viewBox="0 0 1500 1000" width="1500pt" height="1000pt"><g><clipPath id="_clipPath_2BStSTId0VXlUizMpyXguuXZanworcqR"><path d=" M 0 0 L 0 1000 L 1500 1000 L 1500 0 L 0 0 Z " fill="rgb(255,255,255)"/></clipPath><g clip-path="url(#_clipPath_2BStSTId0VXlUizMpyXguuXZanworcqR)"><path d=" M 1500 1000 L 0 1000 L 0 0 L 1500 0 L 1500 1000 Z " fill="rgb(32,83,78)"/><path d=" M 202.901 241.223 C 202.901 143.784 281.88 64.795 379.306 64.795 C 476.733 64.795 555.712 143.784 555.712 241.223 C 555.712 338.66 476.733 417.65 379.306 417.65 C 281.88 417.65 202.901 338.66 202.901 241.223 Z " fill="rgb(232,84,104)"/><path d=" M 115.994 21.641 C 115.994 23.65 114.366 25.278 112.357 25.278 C 110.349 25.278 108.721 23.65 108.721 21.641 C 108.721 19.633 110.349 18.004 112.357 18.004 C 114.366 18.004 115.994 19.633 115.994 21.641 Z " fill="rgb(255,255,255)"/><path d=" M 275.427 21.641 C 275.427 23.65 273.8 25.278 271.791 25.278 C 269.783 25.278 268.154 23.65 268.154 21.641 C 268.154 19.633 269.783 18.004 271.791 18.004 C 273.8 18.004 275.427 19.633 275.427 21.641 Z " fill="rgb(255,255,255)"/><path d=" M 434.859 21.641 C 434.859 23.65 433.232 25.278 431.224 25.278 C 429.215 25.278 427.588 23.65 427.588 21.641 C 427.588 19.633 429.215 18.004 431.224 18.004 C 433.232 18.004 434.859 19.633 434.859 21.641 Z " fill="rgb(255,255,255)"/><path d=" M 594.293 21.641 C 594.293 23.65 592.665 25.278 590.656 25.278 C 588.648 25.278 587.02 23.65 587.02 21.641 C 587.02 19.633 588.648 18.004 590.656 18.004 C 592.665 18.004 594.293 19.633 594.293 21.641 Z " fill="rgb(255,255,255)"/><path d=" M 753.726 21.641 C 753.726 23.65 752.098 25.278 750.09 25.278 C 748.081 25.278 746.453 23.65 746.453 21.641 C 746.453 19.633 748.081 18.004 750.09 18.004 C 752.098 18.004 753.726 19.633 753.726 21.641 Z " fill="rgb(255,255,255)"/><path d=" M 913.158 21.641 C 913.158 23.65 911.531 25.278 909.523 25.278 C 907.514 25.278 905.886 23.65 905.886 21.641 C 905.886 19.633 907.514 18.004 909.523 18.004 C 911.531 18.004 913.158 19.633 913.158 21.641 Z " fill="rgb(255,255,255)"/><path d=" M 1072.592 21.641 C 1072.592 23.65 1070.964 25.278 1068.956 25.278 C 1066.947 25.278 1065.319 23.65 1065.319 21.641 C 1065.319 19.633 1066.947 18.004 1068.956 18.004 C 1070.964 18.004 1072.592 19.633 1072.592 21.641 Z " fill="rgb(255,255,255)"/><path d=" M 1232.025 21.641 C 1232.025 23.65 1230.397 25.278 1228.389 25.278 C 1226.38 25.278 1224.752 23.65 1224.752 21.641 C 1224.752 19.633 1226.38 18.004 1228.389 18.004 C 1230.397 18.004 1232.025 19.633 1232.025 21.641 Z " fill="rgb(255,255,255)"/><path d=" M 1391.464 21.641 C 1391.464 23.65 1389.826 25.278 1387.827 25.278 C 1385.814 25.278 1384.189 23.65 1384.189 21.641 C 1384.189 19.633 1385.814 18.004 1387.827 18.004 C 1389.826 18.004 1391.464 19.633 1391.464 21.641 Z " fill="rgb(255,255,255)"/><path d=" M 115.994 181.094 C 115.994 183.102 114.366 184.731 112.357 184.731 C 110.349 184.731 108.721 183.102 108.721 181.094 C 108.721 179.085 110.349 177.457 112.357 177.457 C 114.366 177.457 115.994 179.085 115.994 181.094 Z " fill="rgb(255,255,255)"/><path d=" M 275.427 181.094 C 275.427 183.102 273.8 184.731 271.791 184.731 C 269.783 184.731 268.154 183.102 268.154 181.094 C 268.154 179.085 269.783 177.457 271.791 177.457 C 273.8 177.457 275.427 179.085 275.427 181.094 Z " fill="rgb(255,255,255)"/><path d=" M 434.859 181.094 C 434.859 183.102 433.232 184.731 431.224 184.731 C 429.215 184.731 427.588 183.102 427.588 181.094 C 427.588 179.085 429.215 177.457 431.224 177.457 C 433.232 177.457 434.859 179.085 434.859 181.094 Z " fill="rgb(255,255,255)"/><path d=" M 594.293 181.094 C 594.293 183.102 592.665 184.731 590.656 184.731 C 588.648 184.731 587.02 183.102 587.02 181.094 C 587.02 179.085 588.648 177.457 590.656 177.457 C 592.665 177.457 594.293 179.085 594.293 181.094 Z " fill="rgb(255,255,255)"/><path d=" M 753.726 181.094 C 753.726 183.102 752.098 184.731 750.09 184.731 C 748.081 184.731 746.453 183.102 746.453 181.094 C 746.453 179.085 748.081 177.457 750.09 177.457 C 752.098 177.457 753.726 179.085 753.726 181.094 Z " fill="rgb(255,255,255)"/><path d=" M 913.158 181.094 C 913.158 183.102 911.531 184.731 909.523 184.731 C 907.514 184.731 905.886 183.102 905.886 181.094 C 905.886 179.085 907.514 177.457 909.523 177.457 C 911.531 177.457 913.158 179.085 913.158 181.094 Z " fill="rgb(255,255,255)"/><path d=" M 1072.592 181.094 C 1072.592 183.102 1070.964 184.731 1068.956 184.731 C 1066.947 184.731 1065.319 183.102 1065.319 181.094 C 1065.319 179.085 1066.947 177.457 1068.956 177.457 C 1070.964 177.457 1072.592 179.085 1072.592 181.094 Z " fill="rgb(255,255,255)"/><path d=" M 1232.025 181.094 C 1232.025 183.102 1230.397 184.731 1228.389 184.731 C 1226.38 184.731 1224.752 183.102 1224.752 181.094 C 1224.752 179.085 1226.38 177.457 1228.389 177.457 C 1230.397 177.457 1232.025 179.085 1232.025 181.094 Z " fill="rgb(255,255,255)"/><path d=" M 1391.464 181.094 C 1391.464 183.102 1389.826 184.731 1387.827 184.731 C 1385.814 184.731 1384.189 183.102 1384.189 181.094 C 1384.189 179.085 1385.814 177.457 1387.827 177.457 C 1389.826 177.457 1391.464 179.085 1391.464 181.094 Z " fill="rgb(255,255,255)"/><path d=" M 115.994 340.548 C 115.994 342.555 114.366 344.184 112.357 344.184 C 110.349 344.184 108.721 342.555 108.721 340.548 C 108.721 338.539 110.349 336.91 112.357 336.91 C 114.366 336.91 115.994 338.539 115.994 340.548 Z " fill="rgb(255,255,255)"/><path d=" M 275.427 340.548 C 275.427 342.555 273.8 344.184 271.791 344.184 C 269.783 344.184 268.154 342.555 268.154 340.548 C 268.154 338.539 269.783 336.91 271.791 336.91 C 273.8 336.91 275.427 338.539 275.427 340.548 Z " fill="rgb(255,255,255)"/><path d=" M 434.859 340.548 C 434.859 342.555 433.232 344.184 431.224 344.184 C 429.215 344.184 427.588 342.555 427.588 340.548 C 427.588 338.539 429.215 336.91 431.224 336.91 C 433.232 336.91 434.859 338.539 434.859 340.548 Z " fill="rgb(255,255,255)"/><path d=" M 594.293 340.548 C 594.293 342.555 592.665 344.184 590.656 344.184 C 588.648 344.184 587.02 342.555 587.02 340.548 C 587.02 338.539 588.648 336.91 590.656 336.91 C 592.665 336.91 594.293 338.539 594.293 340.548 Z " fill="rgb(255,255,255)"/><path d=" M 753.726 340.548 C 753.726 342.555 752.098 344.184 750.09 344.184 C 748.081 344.184 746.453 342.555 746.453 340.548 C 746.453 338.539 748.081 336.91 750.09 336.91 C 752.098 336.91 753.726 338.539 753.726 340.548 Z " fill="rgb(255,255,255)"/><path d=" M 913.158 340.548 C 913.158 342.555 911.531 344.184 909.523 344.184 C 907.514 344.184 905.886 342.555 905.886 340.548 C 905.886 338.539 907.514 336.91 909.523 336.91 C 911.531 336.91 913.158 338.539 913.158 340.548 Z " fill="rgb(255,255,255)"/><path d=" M 1072.592 340.548 C 1072.592 342.555 1070.964 344.184 1068.956 344.184 C 1066.947 344.184 1065.319 342.555 1065.319 340.548 C 1065.319 338.539 1066.947 336.91 1068.956 336.91 C 1070.964 336.91 1072.592 338.539 1072.592 340.548 Z " fill="rgb(255,255,255)"/><path d=" M 1232.025 340.548 C 1232.025 342.555 1230.397 344.184 1228.389 344.184 C 1226.38 344.184 1224.752 342.555 1224.752 340.548 C 1224.752 338.539 1226.38 336.91 1228.389 336.91 C 1230.397 336.91 1232.025 338.539 1232.025 340.548 Z " fill="rgb(255,255,255)"/><path d=" M 1391.464 340.548 C 1391.464 342.555 1389.826 344.184 1387.827 344.184 C 1385.814 344.184 1384.189 342.555 1384.189 340.548 C 1384.189 338.539 1385.814 336.91 1387.827 336.91 C 1389.826 336.91 1391.464 338.539 1391.464 340.548 Z " fill="rgb(255,255,255)"/><path d=" M 115.994 500 C 115.994 502.009 114.366 503.636 112.357 503.636 C 110.349 503.636 108.721 502.009 108.721 500 C 108.721 497.991 110.349 496.362 112.357 496.362 C 114.366 496.362 115.994 497.991 115.994 500 Z " fill="rgb(255,255,255)"/><path d=" M 275.427 500 C 275.427 502.009 273.8 503.636 271.791 503.636 C 269.783 503.636 268.154 502.009 268.154 500 C 268.154 497.991 269.783 496.362 271.791 496.362 C 273.8 496.362 275.427 497.991 275.427 500 Z " fill="rgb(255,255,255)"/><path d=" M 434.859 500 C 434.859 502.009 433.232 503.636 431.224 503.636 C 429.215 503.636 427.588 502.009 427.588 500 C 427.588 497.991 429.215 496.362 431.224 496.362 C 433.232 496.362 434.859 497.991 434.859 500 Z " fill="rgb(255,255,255)"/><path d=" M 594.293 500 C 594.293 502.009 592.665 503.636 590.656 503.636 C 588.648 503.636 587.02 502.009 587.02 500 C 587.02 497.991 588.648 496.362 590.656 496.362 C 592.665 496.362 594.293 497.991 594.293 500 Z " fill="rgb(255,255,255)"/><path d=" M 753.726 500 C 753.726 502.009 752.098 503.636 750.09 503.636 C 748.081 503.636 746.453 502.009 746.453 500 C 746.453 497.991 748.081 496.362 750.09 496.362 C 752.098 496.362 753.726 497.991 753.726 500 Z " fill="rgb(255,255,255)"/><path d=" M 913.158 500 C 913.158 502.009 911.531 503.636 909.523 503.636 C 907.514 503.636 905.886 502.009 905.886 500 C 905.886 497.991 907.514 496.362 909.523 496.362 C 911.531 496.362 913.158 497.991 913.158 500 Z " fill="rgb(255,255,255)"/><path d=" M 1072.592 500 C 1072.592 502.009 1070.964 503.636 1068.956 503.636 C 1066.947 503.636 1065.319 502.009 1065.319 500 C 1065.319 497.991 1066.947 496.362 1068.956 496.362 C 1070.964 496.362 1072.592 497.991 1072.592 500 Z " fill="rgb(255,255,255)"/><path d=" M 1232.025 500 C 1232.025 502.009 1230.397 503.636 1228.389 503.636 C 1226.38 503.636 1224.752 502.009 1224.752 500 C 1224.752 497.991 1226.38 496.362 1228.389 496.362 C 1230.397 496.362 1232.025 497.991 1232.025 500 Z " fill="rgb(255,255,255)"/><path d=" M 1391.464 500 C 1391.464 502.009 1389.826 503.636 1387.827 503.636 C 1385.814 503.636 1384.189 502.009 1384.189 500 C 1384.189 497.991 1385.814 496.362 1387.827 496.362 C 1389.826 496.362 1391.464 497.991 1391.464 500 Z " fill="rgb(255,255,255)"/><path d=" M 115.994 659.454 C 115.994 661.461 114.366 663.09 112.357 663.09 C 110.349 663.09 108.721 661.461 108.721 659.454 C 108.721 657.444 110.349 655.815 112.357 655.815 C 114.366 655.815 115.994 657.444 115.994 659.454 Z " fill="rgb(255,255,255)"/><path d=" M 275.427 659.454 C 275.427 661.461 273.8 663.09 271.791 663.09 C 269.783 663.09 268.154 661.461 268.154 659.454 C 268.154 657.444 269.783 655.815 271.791 655.815 C 273.8 655.815 275.427 657.444 275.427 659.454 Z " fill="rgb(255,255,255)"/><path d=" M 434.859 659.454 C 434.859 661.461 433.232 663.09 431.224 663.09 C 429.215 663.09 427.588 661.461 427.588 659.454 C 427.588 657.444 429.215 655.815 431.224 655.815 C 433.232 655.815 434.859 657.444 434.859 659.454 Z " fill="rgb(255,255,255)"/><path d=" M 594.293 659.454 C 594.293 661.461 592.665 663.09 590.656 663.09 C 588.648 663.09 587.02 661.461 587.02 659.454 C 587.02 657.444 588.648 655.815 590.656 655.815 C 592.665 655.815 594.293 657.444 594.293 659.454 Z " fill="rgb(255,255,255)"/><path d=" M 753.726 659.454 C 753.726 661.461 752.098 663.09 750.09 663.09 C 748.081 663.09 746.453 661.461 746.453 659.454 C 746.453 657.444 748.081 655.815 750.09 655.815 C 752.098 655.815 753.726 657.444 753.726 659.454 Z " fill="rgb(255,255,255)"/><path d=" M 913.158 659.454 C 913.158 661.461 911.531 663.09 909.523 663.09 C 907.514 663.09 905.886 661.461 905.886 659.454 C 905.886 657.444 907.514 655.815 909.523 655.815 C 911.531 655.815 913.158 657.444 913.158 659.454 Z " fill="rgb(255,255,255)"/><path d=" M 1072.592 659.454 C 1072.592 661.461 1070.964 663.09 1068.956 663.09 C 1066.947 663.09 1065.319 661.461 1065.319 659.454 C 1065.319 657.444 1066.947 655.815 1068.956 655.815 C 1070.964 655.815 1072.592 657.444 1072.592 659.454 Z " fill="rgb(255,255,255)"/><path d=" M 1232.025 659.454 C 1232.025 661.461 1230.397 663.09 1228.389 663.09 C 1226.38 663.09 1224.752 661.461 1224.752 659.454 C 1224.752 657.444 1226.38 655.815 1228.389 655.815 C 1230.397 655.815 1232.025 657.444 1232.025 659.454 Z " fill="rgb(255,255,255)"/><path d=" M 1391.464 659.454 C 1391.464 661.461 1389.826 663.09 1387.827 663.09 C 1385.814 663.09 1384.189 661.461 1384.189 659.454 C 1384.189 657.444 1385.814 655.815 1387.827 655.815 C 1389.826 655.815 1391.464 657.444 1391.464 659.454 Z " fill="rgb(255,255,255)"/><path d=" M 115.994 818.906 C 115.994 820.914 114.366 822.543 112.357 822.543 C 110.349 822.543 108.721 820.914 108.721 818.906 C 108.721 816.898 110.349 815.269 112.357 815.269 C 114.366 815.269 115.994 816.898 115.994 818.906 Z " fill="rgb(255,255,255)"/><path d=" M 275.427 818.906 C 275.427 820.914 273.8 822.543 271.791 822.543 C 269.783 822.543 268.154 820.914 268.154 818.906 C 268.154 816.898 269.783 815.269 271.791 815.269 C 273.8 815.269 275.427 816.898 275.427 818.906 Z " fill="rgb(255,255,255)"/><path d=" M 434.859 818.906 C 434.859 820.914 433.232 822.543 431.224 822.543 C 429.215 822.543 427.588 820.914 427.588 818.906 C 427.588 816.898 429.215 815.269 431.224 815.269 C 433.232 815.269 434.859 816.898 434.859 818.906 Z " fill="rgb(255,255,255)"/><path d=" M 594.293 818.906 C 594.293 820.914 592.665 822.543 590.656 822.543 C 588.648 822.543 587.02 820.914 587.02 818.906 C 587.02 816.898 588.648 815.269 590.656 815.269 C 592.665 815.269 594.293 816.898 594.293 818.906 Z " fill="rgb(255,255,255)"/><path d=" M 753.726 818.906 C 753.726 820.914 752.098 822.543 750.09 822.543 C 748.081 822.543 746.453 820.914 746.453 818.906 C 746.453 816.898 748.081 815.269 750.09 815.269 C 752.098 815.269 753.726 816.898 753.726 818.906 Z " fill="rgb(255,255,255)"/><path d=" M 913.158 818.906 C 913.158 820.914 911.531 822.543 909.523 822.543 C 907.514 822.543 905.886 820.914 905.886 818.906 C 905.886 816.898 907.514 815.269 909.523 815.269 C 911.531 815.269 913.158 816.898 913.158 818.906 Z " fill="rgb(255,255,255)"/><path d=" M 1072.592 818.906 C 1072.592 820.914 1070.964 822.543 1068.956 822.543 C 1066.947 822.543 1065.319 820.914 1065.319 818.906 C 1065.319 816.898 1066.947 815.269 1068.956 815.269 C 1070.964 815.269 1072.592 816.898 1072.592 818.906 Z " fill="rgb(255,255,255)"/><path d=" M 1232.025 818.906 C 1232.025 820.914 1230.397 822.543 1228.389 822.543 C 1226.38 822.543 1224.752 820.914 1224.752 818.906 C 1224.752 816.898 1226.38 815.269 1228.389 815.269 C 1230.397 815.269 1232.025 816.898 1232.025 818.906 Z " fill="rgb(255,255,255)"/><path d=" M 1391.464 818.906 C 1391.464 820.914 1389.826 822.543 1387.827 822.543 C 1385.814 822.543 1384.189 820.914 1384.189 818.906 C 1384.189 816.898 1385.814 815.269 1387.827 815.269 C 1389.826 815.269 1391.464 816.898 1391.464 818.906 Z " fill="rgb(255,255,255)"/><path d=" M 115.994 978.36 C 115.994 980.368 114.366 981.996 112.357 981.996 C 110.349 981.996 108.721 980.368 108.721 978.36 C 108.721 976.35 110.349 974.721 112.357 974.721 C 114.366 974.721 115.994 976.35 115.994 978.36 Z " fill="rgb(255,255,255)"/><path d=" M 275.427 978.36 C 275.427 980.368 273.8 981.996 271.791 981.996 C 269.783 981.996 268.154 980.368 268.154 978.36 C 268.154 976.35 269.783 974.721 271.791 974.721 C 273.8 974.721 275.427 976.35 275.427 978.36 Z " fill="rgb(255,255,255)"/><path d=" M 434.859 978.36 C 434.859 980.368 433.232 981.996 431.224 981.996 C 429.215 981.996 427.588 980.368 427.588 978.36 C 427.588 976.35 429.215 974.721 431.224 974.721 C 433.232 974.721 434.859 976.35 434.859 978.36 Z " fill="rgb(255,255,255)"/><path d=" M 594.293 978.36 C 594.293 980.368 592.665 981.996 590.656 981.996 C 588.648 981.996 587.02 980.368 587.02 978.36 C 587.02 976.35 588.648 974.721 590.656 974.721 C 592.665 974.721 594.293 976.35 594.293 978.36 Z " fill="rgb(255,255,255)"/><path d=" M 753.726 978.36 C 753.726 980.368 752.098 981.996 750.09 981.996 C 748.081 981.996 746.453 980.368 746.453 978.36 C 746.453 976.35 748.081 974.721 750.09 974.721 C 752.098 974.721 753.726 976.35 753.726 978.36 Z " fill="rgb(255,255,255)"/><path d=" M 913.158 978.36 C 913.158 980.368 911.531 981.996 909.523 981.996 C 907.514 981.996 905.886 980.368 905.886 978.36 C 905.886 976.35 907.514 974.721 909.523 974.721 C 911.531 974.721 913.158 976.35 913.158 978.36 Z " fill="rgb(255,255,255)"/><path d=" M 1072.592 978.36 C 1072.592 980.368 1070.964 981.996 1068.956 981.996 C 1066.947 981.996 1065.319 980.368 1065.319 978.36 C 1065.319 976.35 1066.947 974.721 1068.956 974.721 C 1070.964 974.721 1072.592 976.35 1072.592 978.36 Z " fill="rgb(255,255,255)"/><path d=" M 1232.025 978.36 C 1232.025 980.368 1230.397 981.996 1228.389 981.996 C 1226.38 981.996 1224.752 980.368 1224.752 978.36 C 1224.752 976.35 1226.38 974.721 1228.389 974.721 C 1230.397 974.721 1232.025 976.35 1232.025 978.36 Z " fill="rgb(255,255,255)"/><path d=" M 1391.464 978.36 C 1391.464 980.368 1389.826 981.996 1387.827 981.996 C 1385.814 981.996 1384.189 980.368 1384.189 978.36 C 1384.189 976.35 1385.814 974.721 1387.827 974.721 C 1389.826 974.721 1391.464 976.35 1391.464 978.36 Z " fill="rgb(255,255,255)"/><path d=" M 151.695 750.199 L 112.357 789.543 L 73.02 750.2 L 43.659 779.563 L 82.997 818.906 L 43.659 858.249 L 73.02 887.613 L 112.357 848.27 L 151.695 887.613 L 181.055 858.249 L 141.717 818.906 L 181.056 779.563 L 151.695 750.199 Z " fill="none" vector-effect="non-scaling-stroke" stroke-width="4" stroke="rgb(232,84,104)" stroke-linejoin="miter" stroke-linecap="butt" stroke-miterlimit="10"/><clipPath id="_clipPath_B5bbRsTgWD6eX7yl2mRLJKaHRNlcWVY7"><path d=" M 1500 1000 L 0 1000 L 0 0 L 1500 0 L 1500 1000 Z " fill="rgb(255,255,255)"/></clipPath><g clip-path="url(#_clipPath_B5bbRsTgWD6eX7yl2mRLJKaHRNlcWVY7)"><path d=" M 778.04 1492.262 C 559.874 1492.262 383.013 1315.387 383.013 1097.191 C 383.013 878.996 559.874 702.115 778.04 702.115 C 996.209 702.115 1173.068 878.996 1173.068 1097.191 C 1173.068 1315.387 996.209 1492.262 778.04 1492.262 Z  M 778.04 520.21 C 459.423 520.21 201.13 778.533 201.13 1097.191 C 201.13 1415.85 459.423 1674.175 778.04 1674.175 C 1096.66 1674.175 1354.956 1415.85 1354.956 1097.191 C 1354.956 778.533 1096.66 520.21 778.04 520.21 Z " fill="rgb(232,84,104)"/><path d=" M 1232.025 130.166 C 1152.893 130.166 1088.745 66.009 1088.745 -13.133 C 1088.745 -92.275 1152.893 -156.432 1232.025 -156.432 C 1311.161 -156.432 1375.303 -92.275 1375.303 -13.133 C 1375.303 66.009 1311.161 130.166 1232.025 130.166 Z  M 1232.025 -301.157 C 1072.975 -301.157 944.036 -172.205 944.036 -13.133 C 944.036 145.939 1072.975 274.892 1232.025 274.892 C 1391.076 274.892 1520.01 145.939 1520.01 -13.133 C 1520.01 -172.205 1391.076 -301.157 1232.025 -301.157 Z " fill="rgb(232,84,104)"/><path d=" M -53.539 36.71 C -53.539 36.71 10.051 148.943 167.157 128.99 C 343.311 106.618 419.025 236.234 375.384 324.773 C 331.744 413.313 137.888 432.017 164.992 575.426 C 192.095 718.834 -43.564 783.679 -43.564 783.679" fill="none" vector-effect="non-scaling-stroke" stroke-width="1" stroke="rgb(255,255,255)" stroke-linejoin="miter" stroke-linecap="butt" stroke-miterlimit="10"/><path d=" M -100.92 166.4 C -100.92 166.4 33.359 215.035 166.965 197.576 C 300.572 180.118 316.197 258.606 300.572 289.856 C 268.154 354.701 94.838 367.173 83.617 471.923 C 75.181 550.665 142.22 656.484 -9.899 712.599" fill="none" vector-effect="non-scaling-stroke" stroke-width="1" stroke="rgb(255,255,255)" stroke-linejoin="miter" stroke-linecap="butt" stroke-miterlimit="10"/><path d=" M -41.071 218.776 C -41.071 218.776 96.181 201.261 71.681 278.632 C 43.598 367.318 -22.367 365.925 39.976 478.158 C 62.151 518.076 68.654 678.93 -53.539 646.506" fill="none" vector-effect="non-scaling-stroke" stroke-width="1" stroke="rgb(255,255,255)" stroke-linejoin="miter" stroke-linecap="butt" stroke-miterlimit="10"/><path d=" M 253.191 274.892 C 253.191 293.487 225.558 308.563 191.471 308.563 C 157.384 308.563 129.751 293.487 129.751 274.892 C 129.751 256.296 157.384 241.223 191.471 241.223 C 225.558 241.223 253.191 256.296 253.191 274.892 Z " fill="none" vector-effect="non-scaling-stroke" stroke-width="1" stroke="rgb(255,255,255)" stroke-linejoin="miter" stroke-linecap="butt" stroke-miterlimit="10"/><path d=" M 1500 383.799 C 1500 383.799 1252.356 325.604 1177.54 570.023 C 1123.856 745.414 1119.279 841.042 1007.929 889.261 C 896.578 937.48 831.741 947.793 825.091 1000" fill="none" vector-effect="non-scaling-stroke" stroke-width="1" stroke="rgb(255,255,255)" stroke-linejoin="miter" stroke-linecap="butt" stroke-miterlimit="10"/><path d=" M 1117.613 1000 C 1117.613 1000 1052.243 837.718 1224.752 752.92 C 1341.195 695.68 1286.602 501.355 1362.08 439.5 C 1421.922 390.45 1500 496.362 1500 496.362" fill="none" vector-effect="non-scaling-stroke" stroke-width="1" stroke="rgb(255,255,255)" stroke-linejoin="miter" stroke-linecap="butt" stroke-miterlimit="10"/><path d=" M 1168.771 1043.856 C 1168.771 1043.856 1170.76 918.321 1303.762 836.017 C 1436.758 753.714 1384.702 611.553 1461.192 589.938 C 1537.67 568.321 1614.148 661.432 1614.148 661.432" fill="none" vector-effect="non-scaling-stroke" stroke-width="1" stroke="rgb(255,255,255)" stroke-linejoin="miter" stroke-linecap="butt" stroke-miterlimit="10"/><path d=" M 1262.33 999 C 1262.33 999 1252.356 895.911 1353.768 882.611 C 1455.181 869.309 1541.632 981.996 1541.632 981.996" fill="none" vector-effect="non-scaling-stroke" stroke-width="1" stroke="rgb(255,255,255)" stroke-linejoin="miter" stroke-linecap="butt" stroke-miterlimit="10"/><path d=" M 1570.566 380.378 L 1500 450.959 L 1429.421 380.378 L 1376.753 433.056 L 1447.319 503.638 L 1376.753 574.218 L 1429.421 626.896 L 1500 556.316 L 1570.566 626.896 L 1623.235 574.218 L 1552.668 503.638 L 1623.235 433.056 L 1570.566 380.378 Z " fill="rgb(232,84,104)"/></g><path d=" M 890.512 924.624 L 890.512 924.624 C 890.512 924.624 890.512 924.624 890.512 924.625 C 890.512 924.625 890.512 924.625 890.512 924.624 Z " fill="rgb(255,255,255)"/><path d=" M 890.512 924.625 C 890.517 924.736 890.512 924.636 890.512 924.625 L 890.512 924.625 Z " fill="rgb(255,255,255)"/></g></g></svg>