<?xml version="1.0" encoding="UTF-8" standalone="no"?><!-- Generator: Gravit.io --><svg xmlns="http://www.w3.org/2000/svg" xmlns:xlink="http://www.w3.org/1999/xlink" style="isolation:isolate" viewBox="0 0 1500 1000" width="1500pt" height="1000pt"><g><clipPath id="_clipPath_GOjRFdAwFx2eeZJ1E4CfZ0O7D921CCeD"><path d=" M 0 0 L 0 1000 L 1500 1000 L 1500 0 L 0 0 Z " fill="rgb(255,255,255)"/></clipPath><g clip-path="url(#_clipPath_GOjRFdAwFx2eeZJ1E4CfZ0O7D921CCeD)"><path d=" M 1500 1000 L 0 1000 L 0 0 L 1500 0 L 1500 1000 Z " fill="rgb(229,229,229)"/><path d=" M 1103.173 673.629 C 1103.173 676.841 1100.571 679.445 1097.359 679.445 C 1094.148 679.445 1091.545 676.841 1091.545 673.629 C 1091.545 670.417 1094.148 667.815 1097.359 667.815 C 1100.571 667.815 1103.173 670.417 1103.173 673.629 Z " fill="rgb(32,83,78)"/><path d=" M 1141.672 673.629 C 1141.672 676.841 1139.069 679.445 1135.858 679.445 C 1132.647 679.445 1130.045 676.841 1130.045 673.629 C 1130.045 670.417 1132.647 667.815 1135.858 667.815 C 1139.069 667.815 1141.672 670.417 1141.672 673.629 Z " fill="rgb(32,83,78)"/><path d=" M 1180.172 673.629 C 1180.172 676.841 1177.569 679.445 1174.358 679.445 C 1171.146 679.445 1168.543 676.841 1168.543 673.629 C 1168.543 670.417 1171.146 667.815 1174.358 667.815 C 1177.569 667.815 1180.172 670.417 1180.172 673.629 Z " fill="rgb(32,83,78)"/><path d=" M 1218.671 673.629 C 1218.671 676.841 1216.069 679.445 1212.857 679.445 C 1209.646 679.445 1207.043 676.841 1207.043 673.629 C 1207.043 670.417 1209.646 667.815 1212.857 667.815 C 1216.069 667.815 1218.671 670.417 1218.671 673.629 Z " fill="rgb(32,83,78)"/><path d=" M 1257.168 673.629 C 1257.168 676.841 1254.568 679.445 1251.356 679.445 C 1248.145 679.445 1245.543 676.841 1245.543 673.629 C 1245.543 670.417 1248.145 667.815 1251.356 667.815 C 1254.568 667.815 1257.168 670.417 1257.168 673.629 Z " fill="rgb(32,83,78)"/><path d=" M 1295.676 673.629 C 1295.676 676.841 1293.063 679.445 1289.851 679.445 C 1286.639 679.445 1284.039 676.841 1284.039 673.629 C 1284.039 670.417 1286.639 667.815 1289.851 667.815 C 1293.063 667.815 1295.676 670.417 1295.676 673.629 Z " fill="rgb(32,83,78)"/><path d=" M 1334.171 673.629 C 1334.171 676.841 1331.571 679.445 1328.359 679.445 C 1325.147 679.445 1322.547 676.841 1322.547 673.629 C 1322.547 670.417 1325.147 667.815 1328.359 667.815 C 1331.571 667.815 1334.171 670.417 1334.171 673.629 Z " fill="rgb(32,83,78)"/><path d=" M 1372.666 673.629 C 1372.666 676.841 1370.066 679.445 1366.854 679.445 C 1363.642 679.445 1361.042 676.841 1361.042 673.629 C 1361.042 670.417 1363.642 667.815 1366.854 667.815 C 1370.066 667.815 1372.666 670.417 1372.666 673.629 Z " fill="rgb(32,83,78)"/><path d=" M 1411.174 673.629 C 1411.174 676.841 1408.561 679.445 1405.349 679.445 C 1402.137 679.445 1399.538 676.841 1399.538 673.629 C 1399.538 670.417 1402.137 667.815 1405.349 667.815 C 1408.561 667.815 1411.174 670.417 1411.174 673.629 Z " fill="rgb(32,83,78)"/><path d=" M 1122.678 704.113 C 1122.678 707.324 1120.075 709.928 1116.864 709.928 C 1113.652 709.928 1111.05 707.324 1111.05 704.113 C 1111.05 700.901 1113.652 698.298 1116.864 698.298 C 1120.075 698.298 1122.678 700.901 1122.678 704.113 Z " fill="rgb(32,83,78)"/><path d=" M 1161.179 704.113 C 1161.179 707.324 1158.575 709.928 1155.363 709.928 C 1152.152 709.928 1149.549 707.324 1149.549 704.113 C 1149.549 700.901 1152.152 698.298 1155.363 698.298 C 1158.575 698.298 1161.179 700.901 1161.179 704.113 Z " fill="rgb(32,83,78)"/><path d=" M 1199.678 704.113 C 1199.678 707.324 1197.075 709.928 1193.863 709.928 C 1190.652 709.928 1188.049 707.324 1188.049 704.113 C 1188.049 700.901 1190.652 698.298 1193.863 698.298 C 1197.075 698.298 1199.678 700.901 1199.678 704.113 Z " fill="rgb(32,83,78)"/><path d=" M 1238.176 704.113 C 1238.176 707.324 1235.573 709.928 1232.362 709.928 C 1229.153 709.928 1226.549 707.324 1226.549 704.113 C 1226.549 700.901 1229.153 698.298 1232.362 698.298 C 1235.573 698.298 1238.176 700.901 1238.176 704.113 Z " fill="rgb(32,83,78)"/><path d=" M 1276.678 704.113 C 1276.678 707.324 1274.078 709.928 1270.866 709.928 C 1267.654 709.928 1265.042 707.324 1265.042 704.113 C 1265.042 700.901 1267.654 698.298 1270.866 698.298 C 1274.078 698.298 1276.678 700.901 1276.678 704.113 Z " fill="rgb(32,83,78)"/><path d=" M 1315.173 704.113 C 1315.173 707.324 1312.573 709.928 1309.361 709.928 C 1306.149 709.928 1303.55 707.324 1303.55 704.113 C 1303.55 700.901 1306.149 698.298 1309.361 698.298 C 1312.573 698.298 1315.173 700.901 1315.173 704.113 Z " fill="rgb(32,83,78)"/><path d=" M 1353.681 704.113 C 1353.681 707.324 1351.069 709.928 1347.857 709.928 C 1344.644 709.928 1342.045 707.324 1342.045 704.113 C 1342.045 700.901 1344.644 698.298 1347.857 698.298 C 1351.069 698.298 1353.681 700.901 1353.681 704.113 Z " fill="rgb(32,83,78)"/><path d=" M 1392.176 705.363 C 1392.176 708.574 1389.576 711.178 1386.364 711.178 C 1383.152 711.178 1380.54 708.574 1380.54 705.363 C 1380.54 702.151 1383.152 699.548 1386.364 699.548 C 1389.576 699.548 1392.176 702.151 1392.176 705.363 Z " fill="rgb(32,83,78)"/><path d=" M 1430.671 707.863 C 1430.671 711.074 1428.071 713.678 1424.859 713.678 C 1421.647 713.678 1419.048 711.074 1419.048 707.863 C 1419.048 704.651 1421.647 702.048 1424.859 702.048 C 1428.071 702.048 1430.671 704.651 1430.671 707.863 Z " fill="rgb(32,83,78)"/><clipPath id="_clipPath_SOSiyfOjv7iYfgN0MS6GowFvkTXfrKok"><path d=" M 1500 1000 L 0 1000 L 0 0 L 1500 0 L 1500 1000 Z " fill="rgb(255,255,255)"/></clipPath><g clip-path="url(#_clipPath_SOSiyfOjv7iYfgN0MS6GowFvkTXfrKok)"><path d=" M 992.087 779.961 L 921.515 850.543 L 850.944 779.961 L 798.273 832.639 L 868.843 903.22 L 798.273 973.8 L 850.944 1026.48 L 921.515 955.899 L 992.087 1026.48 L 1044.758 973.801 L 974.188 903.22 L 1044.758 832.639 L 992.087 779.961 Z " fill="rgb(32,83,78)"/><path d=" M 1500 332.799 C 1316.223 332.799 1167.238 183.8 1167.238 0 C 1167.238 -183.8 1316.223 -332.799 1500 -332.799 C 1683.777 -332.799 1832.758 -183.8 1832.758 0 C 1832.758 183.8 1683.777 332.799 1500 332.799 Z  M 1500 -486.029 C 1231.604 -486.029 1014.027 -268.426 1014.027 0 C 1014.027 268.426 1231.604 486.029 1500 486.029 C 1768.391 486.029 1985.964 268.426 1985.964 0 C 1985.964 -268.426 1768.391 -486.029 1500 -486.029 Z " fill="rgb(32,83,78)"/><path d=" M 165.571 1206.462 C 77.083 1206.462 5.35 1134.721 5.35 1046.225 C 5.35 957.726 77.083 885.985 165.571 885.985 C 254.057 885.985 325.789 957.726 325.789 1046.225 C 325.789 1134.721 254.057 1206.462 165.571 1206.462 Z  M 165.571 724.15 C -12.284 724.15 -156.464 868.348 -156.464 1046.225 C -156.464 1224.1 -12.284 1368.3 165.571 1368.3 C 343.423 1368.3 487.604 1224.1 487.604 1046.225 C 487.604 868.348 343.423 724.15 165.571 724.15 Z " fill="rgb(32,83,78)"/><path d=" M 1072.238 -73.67 C 1072.153 -73.629 1047.679 -62.492 1023.162 -37.774 C 998.65 -13.069 974.087 25.304 974.092 79.601 C 974.092 89.251 974.867 99.402 976.554 110.064 C 978.326 121.272 979.165 131.977 979.165 142.176 C 979.156 190.729 960.174 227.785 932.066 252.793 C 903.956 277.795 866.667 290.706 830.117 290.704 C 811.717 290.704 793.51 287.434 776.76 280.803 C 754.239 271.886 737.722 256.944 722.86 239.35 C 700.565 212.975 682.106 180.645 652.865 154.461 C 623.623 128.27 583.543 108.36 518.375 106.829 C 474.311 105.782 439.009 94.545 410.792 78.291 C 368.473 53.912 342.075 18.198 326.258 -11.447 C 318.351 -26.266 313.093 -39.563 309.814 -49.146 C 308.174 -53.937 307.03 -57.8 306.297 -60.46 C 305.929 -61.791 305.666 -62.82 305.494 -63.514 C 305.408 -63.861 305.346 -64.125 305.304 -64.3 C 305.263 -64.476 305.244 -64.559 305.244 -64.559 L 302.805 -64.017 C 302.83 -63.918 312.18 -21.729 343.788 21.063 C 359.595 42.456 380.976 63.999 409.545 80.457 C 438.11 96.917 473.858 108.276 518.315 109.329 C 561.446 110.355 593.297 119.437 618.29 133.009 C 655.772 153.364 677.914 183.903 699.289 212.921 C 709.976 227.425 720.466 241.54 732.611 253.757 C 744.754 265.974 758.565 276.29 775.841 283.127 C 792.906 289.882 811.421 293.204 830.117 293.204 C 867.248 293.201 905.108 280.106 933.727 254.661 C 962.347 229.222 981.674 191.389 981.665 142.176 C 981.665 131.84 980.815 121.003 979.023 109.673 C 977.357 99.136 976.592 89.117 976.592 79.601 C 976.597 26.09 1000.741 -11.603 1024.937 -36.013 C 1037.033 -48.211 1049.138 -57.068 1058.209 -62.869 C 1062.745 -65.769 1066.522 -67.906 1069.16 -69.314 C 1070.479 -70.019 1071.512 -70.542 1072.215 -70.887 C 1072.565 -71.059 1072.832 -71.188 1073.012 -71.272 C 1073.19 -71.357 1073.275 -71.394 1073.275 -71.394 L 1072.238 -73.67 Z " fill="rgb(32,83,78)"/><path d=" M 938.148 -112.206 C 938.116 -112.119 902.07 -32.241 902.06 59.655 C 902.06 76.15 903.222 93.033 905.969 109.912 C 907.723 120.693 908.529 130.528 908.529 139.481 C 908.516 171.658 898.166 192.421 883.957 205.245 C 869.741 218.065 851.524 222.961 835.698 222.96 C 826.889 222.962 818.834 221.439 812.7 218.974 C 796.37 212.426 783.195 198.659 770.984 181.395 C 752.66 155.515 736.587 121.902 714.917 93.807 C 704.078 79.759 691.825 67.084 677.153 57.474 C 662.483 47.863 645.389 41.332 624.971 39.579 C 619.756 39.13 614.434 38.938 609.025 38.938 C 576.437 38.946 540.655 45.874 506.144 45.868 C 481.402 45.867 457.358 42.321 435.568 30.235 C 413.781 18.145 394.161 -2.499 378.311 -36.986 L 376.04 -35.943 C 392.042 -1.093 412.05 20.055 434.357 32.421 C 456.66 44.791 481.176 48.368 506.144 48.367 C 540.977 48.361 576.78 41.431 609.025 41.438 C 614.376 41.438 619.626 41.628 624.757 42.069 C 651.431 44.371 672.157 54.916 689.415 69.929 C 715.294 92.446 733.248 125.087 750.975 154.712 C 759.843 169.524 768.659 183.578 778.443 195.235 C 788.224 206.889 798.991 216.163 811.769 221.294 C 818.269 223.903 826.602 225.459 835.698 225.46 C 852.02 225.46 870.841 220.428 885.631 207.101 C 900.424 193.779 911.041 172.179 911.029 139.481 C 911.029 130.378 910.21 120.41 908.436 109.51 C 905.714 92.782 904.559 76.033 904.559 59.656 C 904.558 14.032 913.527 -28.701 922.5 -60.014 C 926.985 -75.671 931.472 -88.472 934.834 -97.354 C 936.515 -101.795 937.917 -105.256 938.895 -107.605 C 939.384 -108.778 939.769 -109.675 940.03 -110.276 C 940.29 -110.877 940.426 -111.177 940.426 -111.178 L 938.148 -112.206 Z " fill="rgb(32,83,78)"/><path d=" M 884.152 -62.031 C 884.152 -62.031 884.178 -61.87 884.224 -61.546 C 884.554 -59.279 885.887 -49.304 885.887 -36.657 C 885.893 -22.595 884.222 -5.225 877.809 8.452 C 874.606 15.295 870.24 21.203 864.343 25.401 C 858.444 29.597 850.999 32.126 841.456 32.13 C 836.299 32.13 830.532 31.386 824.093 29.748 C 792.4 21.686 771.992 9.86 753.787 -0.04 C 744.686 -4.99 736.133 -9.462 727.007 -12.704 C 717.884 -15.946 708.188 -17.946 696.874 -17.944 C 677.285 -17.941 652.907 -11.983 617.938 3.615 C 611.42 6.526 601.509 9.158 589.699 11.038 C 577.885 12.921 564.158 14.064 549.93 14.064 C 524.402 14.07 497.253 10.368 476.647 0.766 C 466.34 -4.032 457.683 -10.289 451.616 -18.244 C 445.552 -26.203 442.037 -35.854 442.032 -47.648 C 442.031 -54.961 443.393 -63.101 446.38 -72.14 L 444.007 -72.925 C 440.951 -63.677 439.533 -55.273 439.533 -47.648 C 439.526 -35.353 443.243 -25.09 449.629 -16.727 C 459.213 -4.176 474.671 4.108 492.502 9.296 C 510.344 14.479 530.602 16.563 549.93 16.564 C 564.292 16.564 578.138 15.411 590.092 13.506 C 602.051 11.598 612.103 8.952 618.956 5.898 C 653.755 -9.627 677.81 -15.447 696.874 -15.444 C 707.894 -15.443 717.264 -13.51 726.17 -10.348 C 739.525 -5.609 751.84 1.939 766.828 9.868 C 781.815 17.792 799.469 26.067 823.477 32.171 C 830.086 33.852 836.058 34.63 841.456 34.63 C 851.439 34.635 859.466 31.949 865.793 27.438 C 875.292 20.666 880.914 9.925 884.183 -1.713 C 887.453 -13.361 888.385 -25.963 888.386 -36.657 C 888.386 -51.31 886.627 -62.38 886.62 -62.423 L 884.152 -62.031 Z " fill="rgb(32,83,78)"/><path d=" M 827.635 180.975 L 827.635 179.725 C 823.102 179.724 818.783 178.378 814.808 175.905 C 808.85 172.199 803.692 165.929 800.037 157.964 C 796.383 150 794.233 140.356 794.234 129.964 C 794.232 116.107 798.059 103.582 804.167 94.596 C 807.219 90.102 810.836 86.495 814.808 84.023 C 818.783 81.55 823.102 80.205 827.635 80.203 C 832.168 80.205 836.487 81.55 840.461 84.023 C 846.419 87.729 851.577 93.999 855.232 101.965 C 858.886 109.928 861.036 119.571 861.035 129.964 C 861.039 143.82 857.21 156.346 851.102 165.331 C 848.05 169.825 844.433 173.433 840.461 175.905 C 836.487 178.378 832.168 179.724 827.635 179.725 L 827.635 180.975 L 827.635 182.225 C 832.67 182.226 837.467 180.716 841.784 178.028 C 848.261 173.989 853.685 167.323 857.504 159.006 C 861.32 150.686 863.535 140.701 863.535 129.964 C 863.532 115.648 859.603 102.668 853.17 93.191 C 849.953 88.454 846.103 84.591 841.784 81.901 C 837.467 79.211 832.67 77.702 827.635 77.703 C 822.6 77.702 817.803 79.211 813.487 81.901 C 807.008 85.939 801.585 92.605 797.767 100.922 C 793.95 109.242 791.735 119.227 791.735 129.964 C 791.737 144.28 795.667 157.26 802.1 166.736 C 805.317 171.474 809.168 175.336 813.487 178.028 C 817.803 180.716 822.6 182.226 827.635 182.225 L 827.635 180.975 Z " fill="rgb(32,83,78)"/></g><clipPath id="_clipPath_3iT8quJNjRaZwB4XSccrXT1rtxMvOQ23"><path d=" M 907.57 988.75 L 888.668 988.75 L 907.57 969.845 L 907.57 988.75 Z  M 813.22 988.75 L 482.491 988.75 C 455.391 838.296 323.808 724.15 165.571 724.15 C 110.24 724.15 58.166 738.108 12.682 762.691 L 12.682 93.75 L 40.125 93.75 L 40.125 110.041 C 40.125 112.758 42.327 114.961 45.044 114.961 L 63.993 114.961 C 66.71 114.961 68.912 112.758 68.912 110.041 L 68.912 93.75 L 437.225 93.75 C 460.336 102.803 487.193 108.592 518.315 109.329 C 561.446 110.355 593.297 119.437 618.29 133.009 C 655.772 153.364 677.914 183.903 699.289 212.921 C 709.976 227.425 720.466 241.54 732.611 253.757 C 744.754 265.974 758.565 276.29 775.841 283.127 C 792.906 289.882 811.421 293.204 830.117 293.204 C 856.792 293.203 883.84 286.445 907.57 273.205 L 907.57 836.595 L 850.944 779.961 L 798.273 832.639 L 868.843 903.22 L 798.273 973.8 L 813.22 988.75 Z  M 48.804 208.471 L 48.804 375.517 L 60.543 375.517 L 60.543 208.471 L 48.804 208.471 Z  M 45.044 161.011 C 42.327 161.011 40.125 163.212 40.125 165.93 L 40.125 184.881 C 40.125 187.6 42.327 189.801 45.044 189.801 L 63.993 189.801 C 66.71 189.801 68.912 187.6 68.912 184.881 L 68.912 165.93 C 68.912 163.212 66.71 161.011 63.993 161.011 L 45.044 161.011 Z  M 45.044 123.418 C 42.327 123.418 40.125 125.621 40.125 128.339 L 40.125 147.29 C 40.125 150.007 42.327 152.21 45.044 152.21 L 63.993 152.21 C 66.71 152.21 68.912 150.007 68.912 147.29 L 68.912 136.904 L 68.912 132.455 L 68.912 128.339 C 68.912 125.621 66.71 123.418 63.993 123.418 L 45.044 123.418 Z  M 315.174 988.75 L 15.965 988.75 C 39.065 928.644 97.336 885.985 165.571 885.985 C 233.803 885.985 292.075 928.644 315.174 988.75 Z  M 830.127 290.704 C 830.124 290.704 830.122 290.704 830.117 290.704 C 811.717 290.704 793.51 287.434 776.76 280.803 C 754.239 271.886 737.722 256.944 722.86 239.35 C 700.565 212.975 682.106 180.645 652.865 154.461 C 623.623 128.27 583.543 108.36 518.375 106.829 C 490.292 106.162 465.769 101.356 444.371 93.75 L 711.705 93.75 C 726.557 112.664 738.819 134.398 750.975 154.712 C 759.843 169.524 768.659 183.578 778.443 195.235 C 788.224 206.889 798.991 216.163 811.769 221.294 C 818.269 223.903 826.602 225.459 835.698 225.46 C 852.02 225.46 870.841 220.428 885.631 207.101 C 895.364 198.335 903.291 185.983 907.57 169.245 L 907.57 270.335 C 883.942 283.806 856.837 290.704 830.127 290.704 Z  M 835.681 222.96 C 826.879 222.96 818.83 221.438 812.7 218.974 C 796.37 212.426 783.195 198.659 770.984 181.395 C 752.66 155.515 736.587 121.902 714.917 93.807 C 714.902 93.788 714.887 93.769 714.873 93.75 L 801.726 93.75 C 800.265 95.966 798.94 98.366 797.767 100.922 C 793.95 109.242 791.735 119.227 791.735 129.964 C 791.737 144.28 795.667 157.26 802.1 166.736 C 805.317 171.474 809.168 175.336 813.487 178.028 C 817.803 180.716 822.6 182.226 827.635 182.225 L 827.635 180.975 L 827.635 179.725 C 823.102 179.724 818.783 178.378 814.808 175.905 C 808.85 172.199 803.692 165.929 800.037 157.964 C 796.383 150 794.233 140.356 794.234 129.964 C 794.232 116.107 798.059 103.582 804.167 94.596 C 804.361 94.311 804.558 94.028 804.757 93.75 L 850.512 93.75 C 852.273 96.218 853.858 98.972 855.232 101.965 C 858.886 109.928 861.036 119.571 861.035 129.964 C 861.039 143.82 857.21 156.346 851.102 165.331 C 848.05 169.825 844.433 173.433 840.461 175.905 C 836.487 178.378 832.168 179.724 827.635 179.725 L 827.635 180.975 L 827.635 182.225 C 827.637 182.225 827.638 182.225 827.64 182.225 C 832.673 182.225 837.468 180.716 841.784 178.028 C 848.261 173.989 853.685 167.323 857.504 159.006 C 861.32 150.686 863.535 140.701 863.535 129.964 C 863.532 115.928 859.754 103.175 853.543 93.75 L 903.808 93.75 C 904.376 99.129 905.092 104.521 905.969 109.912 C 906.638 114.024 907.169 117.998 907.57 121.838 L 907.57 155.646 C 904.697 178.819 895.629 194.711 883.957 205.245 C 869.744 218.064 851.529 222.96 835.706 222.96 C 835.702 222.96 835.701 222.96 835.698 222.96 C 835.692 222.96 835.686 222.96 835.681 222.96 Z  M 907.57 103.82 C 907.094 100.462 906.679 97.103 906.322 93.75 L 907.57 93.75 L 907.57 103.82 Z " fill-rule="evenodd" fill="rgb(255,255,255)"/></clipPath><g clip-path="url(#_clipPath_3iT8quJNjRaZwB4XSccrXT1rtxMvOQ23)"/><defs><filter id="xBdbDSJvL0jgz04kDzVBKvEGCWzmehqJ" x="-200%" y="-200%" width="400%" height="400%" filterUnits="objectBoundingBox" color-interpolation-filters="sRGB"><feGaussianBlur xmlns="http://www.w3.org/2000/svg" in="SourceGraphic" stdDeviation="21.46804531419514"/><feOffset xmlns="http://www.w3.org/2000/svg" dx="0" dy="0" result="pf_100_offsetBlur"/><feFlood xmlns="http://www.w3.org/2000/svg" flood-color="#000000" flood-opacity="0.33"/><feComposite xmlns="http://www.w3.org/2000/svg" in2="pf_100_offsetBlur" operator="in" result="pf_100_dropShadow"/><feBlend xmlns="http://www.w3.org/2000/svg" in="SourceGraphic" in2="pf_100_dropShadow" mode="normal"/></filter></defs><g filter="url(#xBdbDSJvL0jgz04kDzVBKvEGCWzmehqJ)"><ellipse vector-effect="non-scaling-stroke" cx="460.1259842519685" cy="541.249875" rx="362.4546931633546" ry="362.5" fill="rgb(32,83,78)"/></g></g></g></svg>