<?xml version="1.0" encoding="UTF-8" standalone="no"?><!-- Generator: Gravit.io --><svg xmlns="http://www.w3.org/2000/svg" xmlns:xlink="http://www.w3.org/1999/xlink" style="isolation:isolate" viewBox="928 451 512 512" width="512pt" height="512pt"><g><g><path d=" M 1358.99 643.058 C 1358.349 639.214 1357.825 636.214 1353.747 633.723 C 1187.015 534.826 1189.375 527.457 1178.554 533.996 C 1052.192 612.549 1017.022 630.068 1011.969 636.185 C 1007.381 640.888 1009.478 648.097 1009.478 757.028 C 1009.173 769.421 1122.239 836.571 1177.229 879.415 C 1182.079 882.867 1188.181 882.313 1191.836 878.993 C 1355.291 763.13 1359.266 767.79 1358.99 757.028 C 1358.99 757.028 1358.815 641.587 1358.99 643.058 Z  M 1337.145 737.587 L 1280.699 703.232 L 1337.145 663.956 L 1337.145 737.587 Z  M 1260.296 690.81 L 1195.156 651.17 L 1195.156 562.773 L 1328.058 643.67 L 1260.296 690.81 Z  M 1184.234 743.718 L 1127.788 704.441 L 1184.234 670.087 L 1240.68 704.441 L 1184.234 743.718 Z  M 1173.312 562.758 L 1173.312 651.214 C 1147.987 666.927 1126.579 680.048 1108.492 691.029 L 1040.41 643.67 L 1173.312 562.758 Z  M 1088.016 703.407 C 1060.725 719.82 1042.9 730.247 1031.323 737.193 L 1031.323 663.956 L 1088.016 703.407 Z  M 1107.385 716.863 L 1173.312 762.722 L 1173.312 850.085 L 1040.41 757.625 L 1107.385 716.863 Z  M 1195.156 850.1 L 1195.156 762.737 L 1261.083 716.878 L 1328.058 757.64 L 1195.156 850.1 Z " fill="#fff"/></g><g><path d=" M 1310 943 L 958 943 C 952.484 943 948 938.516 948 933 L 948 481 C 948 475.484 952.484 471 958 471 L 978 471 C 983.523 471 988 466.523 988 461 C 988 455.477 983.523 451 978 451 L 958 451 C 941.457 451 928 464.457 928 481 L 928 933 C 928 949.543 941.457 963 958 963 L 1310 963 C 1315.52 963 1320 958.523 1320 953 C 1320 947.477 1315.523 943 1310 943 Z " fill="#fff"/><path d=" M 1410 451 L 1058 451 C 1052.477 451 1048 455.477 1048 461 C 1048 466.523 1052.477 471 1058 471 L 1410 471 C 1415.516 471 1420 475.484 1420 481 L 1420 933 C 1420 938.516 1415.516 943 1410 943 L 1390 943 C 1384.477 943 1380 947.477 1380 953 C 1380 958.523 1384.477 963 1390 963 L 1410 963 C 1426.543 963 1440 949.539 1440 933 L 1440 481 C 1440 464.457 1426.543 451 1410 451 Z " fill="#fff"/><path d=" M 1018.004 471 C 1023.523 471 1028.004 466.523 1028.004 461 C 1028.004 455.477 1023.523 451 1018.004 451 L 1017.996 451 C 1012.473 451 1008 455.477 1008 461 C 1008 466.523 1012.48 471 1018.004 471 Z " fill="#fff"/><path d=" M 1350.004 943 L 1349.996 943 C 1344.473 943 1340 947.477 1340 953 C 1340 958.523 1344.48 963 1350.004 963 C 1355.527 963 1360.004 958.523 1360.004 953 C 1360.004 947.477 1355.527 943 1350.004 943 L 1350.004 943 Z " fill="#fff"/></g></g></svg>