<?xml version="1.0" encoding="UTF-8" standalone="no"?><!-- Generator: Gravit.io --><svg xmlns="http://www.w3.org/2000/svg" xmlns:xlink="http://www.w3.org/1999/xlink" style="isolation:isolate" viewBox="40.5 37.5 119 125" width="119pt" height="125pt"><path d=" M 86.6 79 L 60.5 79 L 60.5 96.6 L 82.1 96.6 L 82.1 96.6 Q 84.7 96.6 86.45 98.25 L 86.45 98.25 L 86.45 98.25 Q 88.2 99.9 88.2 102.5 L 88.2 102.5 L 88.2 102.5 Q 88.2 104.7 86.45 106.4 L 86.45 106.4 L 86.45 106.4 Q 84.7 108.1 82.1 108.1 L 82.1 108.1 L 60.5 108.1 L 60.5 131.4 L 60.5 131.4 Q 60.5 134 58.65 135.75 L 58.65 135.75 L 58.65 135.75 Q 56.8 137.5 54.3 137.5 L 54.3 137.5 L 54.3 137.5 Q 51.5 137.5 49.75 135.8 L 49.75 135.8 L 49.75 135.8 Q 48 134.1 48 131.4 L 48 131.4 L 48 73.6 L 48 73.6 Q 48 71 49.75 69.25 L 49.75 69.25 L 49.75 69.25 Q 51.5 67.5 54.1 67.5 L 54.1 67.5 L 86.6 67.5 L 86.6 67.5 Q 89.2 67.5 90.95 69.15 L 90.95 69.15 L 90.95 69.15 Q 92.7 70.8 92.7 73.4 L 92.7 73.4 L 92.7 73.4 Q 92.7 75.6 90.95 77.3 L 90.95 77.3 L 90.95 77.3 Q 89.2 79 86.6 79 L 86.6 79 L 86.6 79 Z  M 155.9 129.7 L 155.9 129.7 Q 156.4 131 156.4 132.1 L 156.4 132.1 L 156.4 132.1 Q 156.4 134.7 154.7 136.35 L 154.7 136.35 L 154.7 136.35 Q 153 138 150.8 138 L 150.8 138 L 150.8 138 Q 149 138 147.55 136.9 L 147.55 136.9 L 147.55 136.9 Q 146.1 135.8 145.3 133.9 L 145.3 133.9 L 140.1 121.8 L 110.3 121.8 L 105.1 134 L 105.1 134 Q 104.4 135.9 102.95 136.95 L 102.95 136.95 L 102.95 136.95 Q 101.5 138 99.8 138 L 99.8 138 L 99.8 138 Q 97.2 138 95.85 136.6 L 95.85 136.6 L 95.85 136.6 Q 94.5 135.2 94.5 132.8 L 94.5 132.8 L 94.5 132.8 Q 94.5 131.9 94.8 130.9 L 94.8 130.9 L 119.7 71.1 L 119.7 71.1 Q 120.5 69.1 122.1 68 L 122.1 68 L 122.1 68 Q 123.7 66.9 125.7 67.1 L 125.7 67.1 L 125.7 67.1 Q 127.5 67.1 129.05 68.15 L 129.05 68.15 L 129.05 68.15 Q 130.6 69.2 131.3 71.1 L 131.3 71.1 L 155.9 129.7 L 155.9 129.7 Z  M 125.1 86.9 L 115.2 110.3 L 135.2 110.3 L 125.1 86.9 L 125.1 86.9 Z " fill="rgb(182,213,237)"/></svg>